<?xml version="1.0" encoding="UTF-8"?>
<svg width="342px" height="184px" viewBox="0 0 342 184" version="1.1" xmlns="http://www.w3.org/2000/svg" xmlns:xlink="http://www.w3.org/1999/xlink">
    <!-- Generator: Sketch 52.6 (67491) - http://www.bohemiancoding.com/sketch -->
    <title>member-card</title>
    <desc>Created with Sketch.</desc>
    <g id="member-card" stroke="none" stroke-width="1" fill="none" fill-rule="evenodd">
        <path d="M4.39339828,15.6066017 L15.6066017,4.39339828 C18.4196474,1.58035261 22.2349561,1.31652901e-14 26.2132034,1.24344979e-14 L332,0 C337.522847,-1.01453063e-15 342,4.4771525 342,10 L342,152.786797 C342,156.765044 340.419647,160.580353 337.606602,163.393398 L326.393398,174.606602 C323.580353,177.419647 319.765044,179 315.786797,179 L10,179 C4.4771525,179 6.76353751e-16,174.522847 0,169 L-3.55271368e-15,26.2132034 C-2.27321175e-15,22.2349561 1.58035261,18.4196474 4.39339828,15.6066017 Z" id="Rectangle" fill="#222B45" fill-rule="nonzero"/>
        <path d="M18.2315462,176 L310,176 L316,179 L144.090757,179 C142.687138,179 141.32794,179.492097 140.24965,180.390672 L137.587264,182.609328 C136.508974,183.507903 135.149776,184 133.746157,184 L33.362241,184 C31.958622,184 30.5994246,183.507903 29.5211346,182.609328 L26.8587482,180.390672 C25.7804582,179.492097 24.4212608,179 23.0176418,179 L10,179 L15.8680304,176.48513 C16.6148915,176.165046 17.4189856,176 18.2315462,176 Z" id="Rectangle" fill="#2662FF" fill-rule="nonzero"/>
    </g>
</svg>