<?xml version="1.0" encoding="UTF-8"?>
<svg width="1161px" height="986px" viewBox="0 0 1161 986" version="1.1" xmlns="http://www.w3.org/2000/svg" xmlns:xlink="http://www.w3.org/1999/xlink">
    <title>nova-defence-logo-black</title>
    <g id="nova-defence-logo-black" stroke="none" stroke-width="1" fill="none" fill-rule="evenodd">
        <path d="M272.798238,0 C329.316418,138.98197 440.402543,263.032936 509.344543,329.870962 C582.166105,400.470154 613.860804,447.249956 578.5,488.894701 C601.488614,485.518354 649.78926,458.348463 649.78926,403.329233 C649.78926,382.925899 646.849032,359.367756 640.968576,332.654802 C764.835734,226.400197 851.388109,86.4620654 882.246402,2.10042001 C890.015289,60.995779 891.946021,134.004184 888.038599,221.125635 C843.572742,281.795379 793.767473,329.042289 738.622792,362.866366 C783.323658,345.44542 827.880907,321.561241 872.29454,291.213829 C838.603914,371.540914 801.802704,426.984038 779.428248,447.249956 C757.053791,467.515874 689.736148,486.317768 656.480759,489.836755 C682.907299,497.814171 710.448305,498.332484 739.103778,491.391693 C705.146494,541.159107 652.121075,593.69521 580.02752,649 C512.455544,600.067529 458.223743,547.013114 417.332118,489.836755 C443.992622,494.298842 470.476086,493.984824 496.78251,488.894701 C448.175266,483.258052 407.1066,467.63657 373.576511,442.030255 C357.672137,429.884376 315.362884,367.853976 283.625901,286.473777 C317.454713,312.1825 362.777571,337.108006 419.594474,361.250296 C361.717417,328.579883 311.50741,280.67411 268.964452,217.532976 C265.404844,168.991329 266.682772,96.4803373 272.798238,0 Z M613.313518,387.908617 C622.590062,395.185564 627.1786,401.700543 627.07913,407.453553 C626.926886,416.258927 618.860755,430.044143 613.002726,432.810112 C614.89614,423.441096 614.999738,408.473932 613.313518,387.908617 Z" id="defence-bird" fill="#000000"></path>
        <path d="M181.3325,972 C187.499833,972 192.924283,970.766533 197.60585,968.2996 C202.287417,965.832667 205.903717,962.356533 208.45475,957.8712 C211.005783,953.385867 212.2813,948.255767 212.2813,942.4809 C212.2813,936.649967 211.005783,931.50585 208.45475,927.04855 C205.903717,922.59125 202.301433,919.129133 197.6479,916.6622 C192.994367,914.195267 187.5559,912.9618 181.3325,912.9618 L181.3325,912.9618 L159.2142,912.9618 L159.2142,972 L181.3325,972 Z M180.4074,959.5532 L173.5953,959.5532 L173.5953,925.2404 L180.4074,925.2404 C185.845867,925.2404 190.0789,926.7542 193.1065,929.7818 C196.1341,932.8094 197.6479,937.042433 197.6479,942.4809 C197.6479,947.919367 196.1341,952.124367 193.1065,955.0959 C190.0789,958.067433 185.845867,959.5532 180.4074,959.5532 L180.4074,959.5532 Z M336.1179,972 L336.1179,960.4783 L314.336,960.4783 L314.336,947.5269 L333.5949,947.5269 L333.5949,936.4257 L314.336,936.4257 L314.336,924.4835 L336.1179,924.4835 L336.1179,912.9618 L299.9549,912.9618 L299.9549,972 L336.1179,972 Z M439.4341,972 L439.4341,948.1156 L457.4315,948.1156 L457.4315,936.9303 L439.4341,936.9303 L439.4341,924.4835 L463.4867,924.4835 L463.4867,912.9618 L425.053,912.9618 L425.053,972 L439.4341,972 Z M586.8187,972 L586.8187,960.4783 L565.0368,960.4783 L565.0368,947.5269 L584.2957,947.5269 L584.2957,936.4257 L565.0368,936.4257 L565.0368,924.4835 L586.8187,924.4835 L586.8187,912.9618 L550.6557,912.9618 L550.6557,972 L586.8187,972 Z M690.1349,972 L690.1349,935.5847 L714.1875,972 L728.5686,972 L728.5686,912.9618 L714.1875,912.9618 L714.1875,949.5453 L690.1349,912.9618 L675.7538,912.9618 L675.7538,972 L690.1349,972 Z M845.8454,972.4205 C852.853733,972.4205 858.852867,970.584317 863.8428,966.91195 C868.832733,963.239583 872.1687,958.2076 873.8507,951.816 L873.8507,951.816 L858.0399,951.816 C856.8625,954.282933 855.194517,956.161167 853.03595,957.4507 C850.877383,958.740233 848.424467,959.385 845.6772,959.385 C841.247933,959.385 837.659667,957.843167 834.9124,954.7595 C832.165133,951.675833 830.7915,947.554933 830.7915,942.3968 C830.7915,937.238667 832.165133,933.117767 834.9124,930.0341 C837.659667,926.950433 841.247933,925.4086 845.6772,925.4086 C848.424467,925.4086 850.877383,926.053367 853.03595,927.3429 C855.194517,928.632433 856.8625,930.510667 858.0399,932.9776 L858.0399,932.9776 L873.8507,932.9776 C872.1687,926.586 868.832733,921.54 863.8428,917.8396 C858.852867,914.1392 852.853733,912.289 845.8454,912.289 C840.1266,912.289 835.010517,913.564517 830.49715,916.11555 C825.983783,918.666583 822.4656,922.226817 819.9426,926.79625 C817.4196,931.365683 816.1581,936.565867 816.1581,942.3968 C816.1581,948.227733 817.4196,953.4139 819.9426,957.9553 C822.4656,962.4967 825.983783,966.042917 830.49715,968.59395 C835.010517,971.144983 840.1266,972.4205 845.8454,972.4205 Z M998.4442,972 L998.4442,960.4783 L976.6623,960.4783 L976.6623,947.5269 L995.9212,947.5269 L995.9212,936.4257 L976.6623,936.4257 L976.6623,924.4835 L998.4442,924.4835 L998.4442,912.9618 L962.2812,912.9618 L962.2812,972 L998.4442,972 Z" id="DEFENCE" fill="#000000" fill-rule="nonzero"></path>
        <g id="nova-logo-black-outlined" transform="translate(67.000000, 690.000000)" fill="#000000">
            <path d="M885.297263,41.7062818 C963.189463,46.4262828 1010.6861,55.4452043 1011.3512,68.0040315 C1011.96794,79.9041601 970.435712,93.0392293 900.592442,105.304791 L930.794338,171.381685 C932.378936,174.847993 930.853509,178.942561 927.387201,180.527158 C926.486702,180.938815 925.508164,181.151877 924.518033,181.151877 L801.938449,181.151877 C798.127119,181.151877 795.037425,178.062183 795.037425,174.250853 C795.037425,173.261918 795.249973,172.284533 795.66067,171.384911 L807.01444,146.514748 C808.417121,143.442209 811.483944,141.470953 814.861517,141.470896 L860.18706,141.470127 L847.491542,113.688002 L845.427716,113.981737 L845.427716,113.981737 L841.268819,114.567476 L841.268819,114.567476 L837.068586,115.150858 L837.068586,115.150858 L832.827401,115.731824 L832.827401,115.731824 L828.545652,116.310315 L828.545652,116.310315 L824.223723,116.886274 L824.223723,116.886274 L819.862001,117.459641 C819.131753,117.554982 818.399863,117.650214 817.666338,117.745334 L813.24565,118.314703 L813.24565,118.314703 L808.786132,118.881333 C808.039665,118.97554 807.291596,119.069631 806.541934,119.163603 L802.024897,119.726016 L802.024897,119.726016 L797.469996,120.285545 L797.469996,120.285545 L772.400843,175.104106 C770.716504,178.788586 767.037613,181.151877 762.986392,181.151877 L720.7597,181.151877 C717.901202,181.151877 715.583932,178.834607 715.583932,175.976109 C715.583932,175.233511 715.743729,174.499607 716.052471,173.824233 L737.458754,127.016172 L731.474144,127.628072 L731.474144,127.628072 L725.443991,128.234671 C724.435206,128.335323 723.424551,128.435751 722.412039,128.535951 L716.314789,129.134414 C713.255129,129.432267 710.179,129.728039 707.086766,130.021675 L700.880933,130.606084 C699.843085,130.703005 698.803474,130.799685 697.762115,130.896121 L691.49308,131.471802 C690.444779,131.567256 689.394757,131.662462 688.343026,131.757419 L682.01225,132.324149 C680.95374,132.418099 679.893549,132.511796 678.831691,132.605236 L660.31814,173.088165 C658.072358,178.000815 653.167165,181.151877 647.76553,181.151877 L608.564767,181.151877 C603.163132,181.151877 598.257939,178.000815 596.012157,173.088165 L580.956309,140.147014 C557.237222,141.728642 532.97676,143.175296 508.294096,144.468859 C499.078871,144.951809 489.919943,145.407385 480.823579,145.835876 C464.266845,167.315005 438.27813,181.151877 409.05764,181.151877 C381.97907,181.151877 357.675849,169.269198 341.077908,150.433771 L335.063547,150.53647 L335.063547,150.53647 L329.083977,150.630107 C328.090312,150.644959 327.098119,150.659435 326.107411,150.673535 L320.181055,150.753623 C318.211599,150.778817 316.24817,150.802511 314.290859,150.824707 L308.43737,150.886812 C307.464878,150.896416 306.493938,150.905647 305.524562,150.914504 L299.727161,150.963183 C298.764085,150.970552 297.802595,150.97755 296.842704,150.984176 L291.10262,151.019481 L291.10262,151.019481 L285.401433,151.045901 C283.507581,151.053229 281.620302,151.05908 279.739689,151.063458 L274.117936,151.072175 L274.117936,151.072175 L268.536721,151.072077 L268.536721,151.072077 L282.344783,168.58091 C284.99979,171.947765 284.422724,176.829448 281.055869,179.484455 C279.686237,180.564508 277.992804,181.151877 276.248554,181.151877 L225.154594,181.151877 C220.902568,181.151877 216.88788,179.192028 214.272437,175.83954 L194.212209,150.139831 L189.946829,150.026682 L189.946829,150.026682 L185.71873,149.907166 L185.71873,149.907166 L181.528271,149.7813 C180.833018,149.759794 180.139347,149.738024 179.447268,149.715991 L175.31394,149.58063 L175.31394,149.58063 L169.186316,149.365764 L169.186316,149.365764 L165.150001,149.214661 L165.150001,149.214661 L161.153118,149.057291 L161.153118,149.057291 L157.196026,148.893669 C156.539847,148.865879 155.88534,148.837829 155.232514,148.80952 L151.335782,148.636552 C150.689707,148.607206 150.045328,148.577602 149.402651,148.547739 L149.406616,175.976109 C149.406616,178.834607 147.089346,181.151877 144.230848,181.151877 L97.6489368,181.151877 C94.7904391,181.151877 92.4731688,178.834607 92.4731688,175.976109 L92.4613843,144.835106 C91.3063765,144.733163 90.1608103,144.630019 89.0247654,144.52568 L85.6452748,144.209077 C85.0868136,144.155714 84.5307528,144.102051 83.9771023,144.048092 L80.6842025,143.720766 C30.0950481,138.591961 0.525280373,130.896777 0,121.005976 C-0.346717474,114.258067 12.8544486,107.113074 37.0861251,99.9546977 L38.9718141,99.4040335 C40.2433877,99.036915 41.5437996,98.6697872 42.8727094,98.3027018 L44.887405,97.7521121 C46.5840583,97.2933245 48.3249736,96.8346437 50.109486,96.3761707 L52.271785,95.8261093 C52.9994985,95.6427931 53.734145,95.4595165 54.4756819,95.2762862 L56.7209213,94.7267401 L56.7209213,94.7267401 L59.007248,94.17751 C59.3917122,94.0860001 59.7778778,93.994505 60.1657393,93.9030255 L59.2812869,94.2070817 L59.2812869,94.2070817 L58.4185733,94.5107518 L58.4185733,94.5107518 L57.5776846,94.8140242 L57.5776846,94.8140242 L56.758707,95.1168873 L56.758707,95.1168873 L55.9617268,95.4193293 L55.9617268,95.4193293 L55.1868302,95.7213388 L55.1868302,95.7213388 L54.4341033,96.0229039 C54.3105011,96.0731271 54.1878263,96.1233313 54.0660805,96.1735162 L53.34677,96.4743931 C53.2287479,96.5245001 53.1116586,96.5745874 52.9955038,96.6246547 L52.3098035,96.9248171 C52.1973939,96.9748035 52.0859225,97.0247695 51.9753909,97.0747149 L51.3234948,97.3741365 L51.3234948,97.3741365 L50.6942426,97.6730497 C50.5912591,97.7228256 50.4892226,97.7725798 50.3881349,97.8223121 L49.7930102,98.1204409 L49.7930102,98.1204409 L49.220745,98.4180323 L49.220745,98.4180323 L48.6714253,98.7150744 L48.6714253,98.7150744 L48.1451375,99.0115558 C48.0593469,99.060922 47.9745197,99.1102643 47.8906574,99.1595826 L47.399079,99.4552009 C47.2390893,99.5536426 47.0829741,99.6519861 46.9307479,99.7502293 L46.4857503,100.044656 C46.4135333,100.093676 46.3422921,100.142671 46.2720285,100.19164 L45.8621929,100.485143 C43.606432,102.146548 42.4849507,103.777574 42.5683371,105.36868 C43.6529531,126.064387 248.172523,132.169235 499.375582,119.004241 C750.578642,105.839246 953.339702,78.3897243 952.255086,57.6940178 C951.989572,52.6277088 939.532803,48.4357868 917.184346,45.186893 L915.299126,44.9183363 C914.66312,44.829546 914.019531,44.7414848 913.368407,44.6541543 L911.392485,44.3943557 C911.059414,44.3514218 910.724472,44.3086708 910.387665,44.2661031 L908.344493,44.0128964 L908.344493,44.0128964 L906.256856,43.7640953 L906.256856,43.7640953 L904.12505,43.5197087 L904.12505,43.5197087 L901.949373,43.2797453 L901.949373,43.2797453 L899.730118,43.0442139 L899.730118,43.0442139 L897.467582,42.8131235 L897.467582,42.8131235 L895.162061,42.5864828 C894.774241,42.5490807 894.384643,42.5118643 893.993273,42.4748339 L891.623828,42.2548843 L891.623828,42.2548843 L889.212136,42.0394066 L889.212136,42.0394066 L886.758495,41.8284095 L886.758495,41.8284095 L885.297263,41.7062818 Z M143.550034,0 C147.248452,0 150.742968,1.69464866 153.033058,4.59874609 L232.63295,105.563022 L226.224202,105.549706 L226.224202,105.549706 L221.48014,105.532346 L221.48014,105.532346 L213.695084,105.48934 L213.695084,105.48934 L206.065789,105.428698 L206.065789,105.428698 L200.077304,105.367456 L200.077304,105.367456 L195.654398,105.314083 L195.654398,105.314083 L189.850179,105.232977 L189.850179,105.232977 L186.988523,105.188156 L186.988523,105.188156 L182.747356,105.115582 L182.747356,105.115582 L177.189664,105.008827 L177.189664,105.008827 L171.74501,104.890631 L171.74501,104.890631 L167.736987,104.794463 L167.736987,104.794463 L165.101409,104.726762 L165.101409,104.726762 L161.203366,104.619823 L161.203366,104.619823 L158.641942,104.544932 L158.641942,104.544932 L149.406616,92.6941789 L149.384506,104.241176 L145.283683,104.088568 L145.283683,104.088568 L142.2682,103.968586 L142.2682,103.968586 L138.328793,103.801232 L138.328793,103.801232 L135.435891,103.670175 L135.435891,103.670175 L132.596453,103.534359 L132.596453,103.534359 L129.811038,103.39378 L129.811038,103.39378 L126.18215,103.198918 L126.18215,103.198918 L123.524956,103.047197 L123.524956,103.047197 L120.069056,102.837458 L120.069056,102.837458 L117.543122,102.67456 L117.543122,102.67456 L115.890901,102.563296 L115.890901,102.563296 L113.460584,102.392394 L113.460584,102.392394 L111.872623,102.275787 L111.872623,102.275787 L108.774849,102.036151 L108.774849,102.036151 L106.520547,101.850796 L106.520547,101.850796 L105.05086,101.724544 L105.05086,101.724544 L103.607911,101.596142 L103.607911,101.596142 L101.493981,101.399506 L101.493981,101.399506 L100.118599,101.265724 L100.118599,101.265724 L98.7705324,101.129787 L98.7705324,101.129787 L97.4499476,100.991692 L97.4499476,100.991692 L95.5209598,100.7805 L95.5209598,100.7805 L94.2698019,100.637004 L94.2698019,100.637004 L92.4457292,100.417701 L92.4457292,100.417701 L92.4731688,5.17576792 C92.4731688,2.31727023 94.7904391,0 97.6489368,0 L143.550034,0 Z M409.05764,0 C459.081349,0 499.633578,40.552229 499.633578,90.5759386 C499.633578,93.4826103 499.496662,96.3573036 499.228927,99.1939209 C484.79725,99.8263339 470.452671,100.412247 456.239722,100.95188 L456.248348,100.94932 C456.979516,97.607792 457.364807,94.13686 457.364807,90.5759386 C457.364807,63.8966268 435.736952,42.2687713 409.05764,42.2687713 C382.378328,42.2687713 360.750473,63.8966268 360.750473,90.5759386 C360.750473,95.1938506 361.398444,99.6604209 362.608424,103.889688 L355.865601,104.052101 L355.865601,104.052101 L349.165991,104.206198 L349.165991,104.206198 L342.51086,104.351998 L342.51086,104.351998 L335.901474,104.48952 L335.901474,104.48952 L329.339098,104.618785 L329.339098,104.618785 L322.824998,104.739813 C321.743408,104.759299 320.663882,104.778442 319.586447,104.797244 C318.861047,100.16379 318.481701,95.4141645 318.481701,90.5759386 C318.481701,40.552229 359.03393,0 409.05764,0 Z M567.169819,0 C571.22105,0 574.899948,2.36330277 576.584282,6.04779669 L616.390116,93.123231 C597.929636,94.2332825 579.392586,95.2718923 560.878674,96.2379122 L520.235918,7.32764395 C519.04747,4.72791326 520.19154,1.65698742 522.791271,0.468539105 C523.466645,0.159796593 524.200549,0 524.943147,0 L567.169819,0 Z M731.38715,0 C734.245647,0 736.562918,2.31727023 736.562918,5.17576792 C736.562918,5.91836627 736.403121,6.6522697 736.094379,7.32764395 L699.406745,87.5910198 C680.03658,89.0156667 660.402834,90.3595929 640.629766,91.6213678 L679.746014,6.04779669 C681.430348,2.36330277 685.109247,0 689.160478,0 L731.38715,0 Z M843.582083,0 C848.983718,0 853.888911,3.15106246 856.134693,8.0637117 L884.524712,70.1259559 L882.046079,70.4268025 L882.046079,70.4268025 L877.056631,71.0249119 C876.221513,71.1241982 875.384636,71.223285 874.546016,71.3221723 L869.493506,71.9130988 L869.493506,71.9130988 L864.399957,72.4992251 C863.547656,72.5965123 862.693679,72.6935991 861.838043,72.7904853 L856.684436,73.3693942 L856.684436,73.3693942 L851.491794,73.9434799 C850.623145,74.0387584 849.752903,74.1338355 848.881084,74.2287111 L843.63139,74.7955447 C841.875275,74.983682 840.112987,75.1710116 838.344662,75.357532 L833.021702,75.9146639 C832.131567,76.007114 831.239956,76.0993615 830.346885,76.1914061 L823.981701,62.2713891 L817.014789,77.5398305 L813.612574,77.8759472 L813.612574,77.8759472 L806.770319,78.542458 C805.625805,78.6529066 804.479244,78.7630365 803.330668,78.8728476 L796.415295,79.527884 L796.415295,79.527884 L789.453123,80.1752484 L789.453123,80.1752484 L782.445709,80.8149229 L782.445709,80.8149229 L775.39461,81.4468895 C774.215873,81.551574 773.035381,81.6559365 771.853166,81.7599768 L764.73946,82.380348 C762.361506,82.5858473 759.97692,82.7900544 757.585961,82.9929665 L791.82871,8.0637117 C794.074492,3.15106246 798.979685,0 804.38132,0 L843.582083,0 Z M278.800814,0 C281.659312,0 283.976582,2.31727023 283.976582,5.17576792 L283.976582,66.1449544 C283.976582,69.0034521 281.659312,71.3207224 278.800814,71.3207224 C277.214279,71.3207224 275.715384,70.5930763 274.734017,69.3464754 L227.836146,9.7735037 C225.773303,7.15313547 226.225266,3.35664259 228.845634,1.29379952 C229.910254,0.455694556 231.225812,0 232.580742,0 L278.800814,0 Z" id="nova-logo-outlined"></path>
        </g>
    </g>
</svg>