<?xml version="1.0" encoding="UTF-8"?>
<svg width="1161px" height="986px" viewBox="0 0 1161 986" version="1.1" xmlns="http://www.w3.org/2000/svg" xmlns:xlink="http://www.w3.org/1999/xlink">
    <title>nova-defence-emblem-black</title>
    <g id="nova-defence-emblem-black" stroke="none" stroke-width="1" fill="none" fill-rule="evenodd">
        <path d="M272.798238,0 C329.316418,138.98197 440.402543,263.032936 509.344543,329.870962 C582.166105,400.470154 613.860804,447.249956 578.5,488.894701 C601.488614,485.518354 649.78926,458.348463 649.78926,403.329233 C649.78926,382.925899 646.849032,359.367756 640.968576,332.654802 C764.835734,226.400197 851.388109,86.4620654 882.246402,2.10042001 C890.015289,60.995779 891.946021,134.004184 888.038599,221.125635 C843.572742,281.795379 793.767473,329.042289 738.622792,362.866366 C783.323658,345.44542 827.880907,321.561241 872.29454,291.213829 C838.603914,371.540914 801.802704,426.984038 779.428248,447.249956 C757.053791,467.515874 689.736148,486.317768 656.480759,489.836755 C682.907299,497.814171 710.448305,498.332484 739.103778,491.391693 C705.146494,541.159107 652.121075,593.69521 580.02752,649 C512.455544,600.067529 458.223743,547.013114 417.332118,489.836755 C443.992622,494.298842 470.476086,493.984824 496.78251,488.894701 C448.175266,483.258052 407.1066,467.63657 373.576511,442.030255 C357.672137,429.884376 315.362884,367.853976 283.625901,286.473777 C317.454713,312.1825 362.777571,337.108006 419.594474,361.250296 C361.717417,328.579883 311.50741,280.67411 268.964452,217.532976 C265.404844,168.991329 266.682772,96.4803373 272.798238,0 Z M613.313518,387.908617 C622.590062,395.185564 627.1786,401.700543 627.07913,407.453553 C626.926886,416.258927 618.860755,430.044143 613.002726,432.810112 C614.89614,423.441096 614.999738,408.473932 613.313518,387.908617 Z" id="defence-bird" fill="#000000"></path>
    </g>
</svg>