<?xml version="1.0" encoding="UTF-8"?>
<svg width="1161px" height="986px" viewBox="0 0 1161 986" version="1.1" xmlns="http://www.w3.org/2000/svg" xmlns:xlink="http://www.w3.org/1999/xlink">
    <title>nova-fronttiers-emblem-white</title>
    <g id="nova-fronttiers-emblem-white" stroke="none" stroke-width="1" fill="none" fill-rule="evenodd">
        <path d="M826.591498,59 C869.118105,59 905.448745,110.498135 883.297448,160.238667 L638.715208,610.370516 C624.903259,636.049163 608.454402,649 578.385903,649 C548.317403,649 532.096741,636.049163 518.284792,610.370516 L273.702552,160.238667 C251.551255,110.498135 287.881895,59 330.408502,59 L826.591498,59 Z M826.272195,74 L330.727805,74 C315.370598,74 300.059362,83.4751715 290.661191,98.874458 C280.716144,115.169823 279.021324,135.166192 287.214741,153.943973 L531.19434,602.10664 C535.836984,610.721427 540.457535,617.243457 545.649124,622.021717 L546.26601,623.33843 L547.776735,623.856258 C555.833912,630.348114 565.363937,633 578.386049,633 C591.773176,633 601.536053,630.186708 609.77368,623.332597 L610.346094,623.164169 L610.588608,622.637022 C616.112775,617.801888 620.966339,611.086377 625.80566,602.10664 L869.785259,153.943973 C877.978676,135.166192 876.283856,115.169823 866.338809,98.874458 C856.940638,83.4751715 841.629402,74 826.272195,74 Z M585.018945,382.332282 L585.018945,393.271083 L585.276629,393.274626 C587.251835,500.871785 599.219728,562.720995 621.180308,578.822258 L612.047156,595.626357 C602.208369,613.916407 594.640822,619 577.385806,619 C560.223899,619 552.8432,614.012276 542.952844,595.626357 L542.952844,595.626357 L533.859763,578.897296 C568.088333,561.080895 571.712503,447.81183 571.512469,393.265893 L575.981055,393.271083 L575.981055,382.332282 C577.509238,383.015813 579.037121,383.357579 580.564703,383.357579 C582.092286,383.357579 583.577033,383.015813 585.018945,382.332282 L585.018945,382.332282 Z M825.800789,87 C835.825037,87 846.575292,93.664961 853.453404,104.955859 C860.894424,117.17081 862.233652,132.024212 856.224626,146.271168 L856.224626,146.271168 L673.581418,482.38959 C621.829898,536.691298 594.911542,506.987548 592.826349,393.278341 L598.068444,393.271083 L602.946484,397 L602.946484,389.042122 L606.092707,391.348954 L606.092707,316.681172 L604.735506,314.941033 L604.735506,309.159796 C613.222168,309.159796 619.734709,307.572986 624.273129,304.399366 C627.160538,317.630495 632.124268,333.044595 639.164319,350.641667 L639.164319,350.641667 L639.164319,357.39571 L637.484822,362.567433 L639.578351,362.52254 L641.111001,357.39571 L641.111001,305.196743 L646.065778,303.070866 L646.065778,300.011552 C650.021926,300.011552 652,298.415533 652,295.223495 C652,292.031458 650.021926,290.43659 646.065778,290.438892 L646.065778,290.438892 L646.065778,287.580908 L641.970805,285.709197 L641.970805,280.536438 L639.578351,280.536438 L639.578351,269.891171 L626.542107,274.735517 L626.542107,288.184206 C620.267334,285.085869 614.010584,282.8694 607.771855,281.534799 L607.771855,281.534799 L609.856314,273.467105 L603.263199,168.7487 C600.899928,154.541657 599.39681,146.712704 598.753846,145.261841 C597.826275,143.168755 595.294531,140.580361 591.158614,137.496659 C589.391799,133.025274 587.658819,128.65323 585.959673,124.380527 C585.892034,124.210441 584.093711,123.945691 580.564703,124.009811 C577.035696,124.073931 575.107966,124.210441 575.040327,124.380527 C573.341181,128.65323 571.608201,133.025274 569.841386,137.496659 C565.705469,140.580361 563.173725,143.168755 562.246154,145.261841 C561.60319,146.712704 560.100072,154.541657 557.736801,168.7487 L557.736801,168.7487 L551.143686,273.467105 L553.228145,281.534799 C546.989416,282.8694 540.732666,285.085869 534.457893,288.184206 L534.457893,288.184206 L534.457893,274.735517 L521.421649,269.891171 L521.421649,280.536438 L519.029195,280.536438 L519.029195,285.709197 L514.934222,287.580908 L514.934222,290.438892 C510.978074,290.43659 509,292.031458 509,295.223495 C509,298.415533 510.978074,300.011552 514.934222,300.011552 L514.934222,300.011552 L514.934222,303.070866 L519.888999,305.196743 L519.888999,357.39571 L521.421649,362.52254 L523.515178,362.567433 L521.835681,357.39571 L521.835681,350.641667 C528.875732,333.044595 533.839462,317.630495 536.726871,304.399366 C541.265291,307.572986 547.777832,309.159796 556.264494,309.159796 L556.264494,309.159796 L556.264494,314.941033 L554.907293,316.681172 L554.907293,391.348954 L558.053516,389.042122 L558.053516,397 L562.16259,393.868546 C559.995118,507.090212 533.080449,536.597227 481.418582,482.38959 L298.775374,146.271168 C292.766348,132.024212 294.105576,117.17081 301.546596,104.955859 C308.424708,93.664961 319.174963,87 329.199211,87 L329.199211,87 Z M457.5,272 C457.5,292.710678 441.158393,309.5 421,309.5 C441.158393,309.5 457.5,326.289322 457.5,347 C457.5,326.289322 473.841607,309.5 494,309.5 C473.841607,309.5 457.5,292.710678 457.5,272 Z M704.5,266 C704.5,279.807119 693.530976,291 680,291 C693.530976,291 704.5,302.192881 704.5,316 C704.5,302.192881 715.469024,291 729,291 C715.469024,291 704.5,279.807119 704.5,266 Z M783,192 C783,199.731986 776.731986,206 769,206 C776.731986,206 783,212.268014 783,220 C783,212.268014 789.268014,206 797,206 C789.268014,206 783,199.731986 783,192 Z M697.5,129 C697.5,152.472102 678.472102,171.5 655,171.5 C678.472102,171.5 697.5,190.527898 697.5,214 C697.5,190.527898 716.527898,171.5 740,171.5 C716.527898,171.5 697.5,152.472102 697.5,129 Z M392,114 C392,138.300529 372.300529,158 348,158 C372.300529,158 392,177.699471 392,202 C392,177.699471 411.699471,158 436,158 C411.699471,158 392,138.300529 392,114 Z M493,173 C493,180.731986 486.731986,187 479,187 C486.731986,187 493,193.268014 493,201 C493,193.268014 499.268014,187 507,187 C499.268014,187 493,180.731986 493,173 Z" id="frontiers-emblem" fill="#FFFFFF"></path>
    </g>
</svg>