<?xml version="1.0" encoding="UTF-8"?>
<svg width="1161px" height="986px" viewBox="0 0 1161 986" version="1.1" xmlns="http://www.w3.org/2000/svg" xmlns:xlink="http://www.w3.org/1999/xlink">
    <title>nova-core-logo-black</title>
    <g id="nova-core-logo-black" stroke="none" stroke-width="1" fill="none" fill-rule="evenodd">
        <path d="M378.21923,969.4205 C385.227563,969.4205 391.226697,967.584317 396.21663,963.91195 C401.206563,960.239583 404.54253,955.2076 406.22453,948.816 L406.22453,948.816 L390.41373,948.816 C389.23633,951.282933 387.568347,953.161167 385.40978,954.4507 C383.251213,955.740233 380.798297,956.385 378.05103,956.385 C373.621763,956.385 370.033497,954.843167 367.28623,951.7595 C364.538963,948.675833 363.16533,944.554933 363.16533,939.3968 C363.16533,934.238667 364.538963,930.117767 367.28623,927.0341 C370.033497,923.950433 373.621763,922.4086 378.05103,922.4086 C380.798297,922.4086 383.251213,923.053367 385.40978,924.3429 C387.568347,925.632433 389.23633,927.510667 390.41373,929.9776 L390.41373,929.9776 L406.22453,929.9776 C404.54253,923.586 401.206563,918.54 396.21663,914.8396 C391.226697,911.1392 385.227563,909.289 378.21923,909.289 C372.50043,909.289 367.384347,910.564517 362.87098,913.11555 C358.357613,915.666583 354.83943,919.226817 352.31643,923.79625 C349.79343,928.365683 348.53193,933.565867 348.53193,939.3968 C348.53193,945.227733 349.79343,950.4139 352.31643,954.9553 C354.83943,959.4967 358.357613,963.042917 362.87098,965.59395 C367.384347,968.144983 372.50043,969.4205 378.21923,969.4205 Z M520.46839,969.5887 C526.01899,969.5887 531.093023,968.299167 535.69049,965.7201 C540.287957,963.141033 543.93229,959.53875 546.62349,954.91325 C549.31469,950.28775 550.66029,945.087567 550.66029,939.3127 C550.66029,933.537833 549.328707,928.351667 546.66554,923.7542 C544.002373,919.156733 540.35804,915.568467 535.73254,912.9894 C531.10704,910.410333 526.01899,909.1208 520.46839,909.1208 C514.91779,909.1208 509.82974,910.410333 505.20424,912.9894 C500.57874,915.568467 496.906373,919.156733 494.18714,923.7542 C491.467907,928.351667 490.10829,933.537833 490.10829,939.3127 C490.10829,945.087567 491.467907,950.28775 494.18714,954.91325 C496.906373,959.53875 500.57874,963.141033 505.20424,965.7201 C509.82974,968.299167 514.91779,969.5887 520.46839,969.5887 Z M520.46839,956.4691 C515.702723,956.4691 511.904207,954.91325 509.07284,951.80155 C506.241473,948.68985 504.82579,944.5269 504.82579,939.3127 C504.82579,934.042433 506.241473,929.865467 509.07284,926.7818 C511.904207,923.698133 515.702723,922.1563 520.46839,922.1563 C525.17799,922.1563 528.948473,923.71215 531.77984,926.82385 C534.611207,929.93555 536.02689,934.0985 536.02689,939.3127 C536.02689,944.470833 534.611207,948.619767 531.77984,951.7595 C528.948473,954.899233 525.17799,956.4691 520.46839,956.4691 Z M650.52305,969 L650.52305,946.7135 L653.97115,946.7135 L666.24975,969 L682.48105,969 L668.85685,945.6202 C673.173983,944.330667 676.439867,942.144067 678.6545,939.0604 C680.869133,935.976733 681.97645,932.472567 681.97645,928.5479 C681.97645,925.071767 681.163483,921.918017 679.53755,919.08665 C677.911617,916.255283 675.4587,914.026633 672.1788,912.4007 C668.8989,910.774767 664.932183,909.9618 660.27865,909.9618 L660.27865,909.9618 L636.14195,909.9618 L636.14195,969 L650.52305,969 Z M659.43765,936.5374 L650.52305,936.5374 L650.52305,921.904 L659.43765,921.904 C662.072783,921.904 664.049133,922.548767 665.3667,923.8383 C666.684267,925.127833 667.34305,926.893933 667.34305,929.1366 C667.34305,931.4914 666.684267,933.313567 665.3667,934.6031 C664.049133,935.892633 662.072783,936.5374 659.43765,936.5374 L659.43765,936.5374 Z M804.63031,969 L804.63031,957.4783 L782.84841,957.4783 L782.84841,944.5269 L802.10731,944.5269 L802.10731,933.4257 L782.84841,933.4257 L782.84841,921.4835 L804.63031,921.4835 L804.63031,909.9618 L768.46731,909.9618 L768.46731,969 L804.63031,969 Z" id="CORE" fill="#000000" fill-rule="nonzero"></path>
        <path d="M578.22469,1 L846.44938,161.923443 L846.44938,486.288185 L578.22469,648.769043 L310,486.288185 L310,161.923443 L578.22469,1 Z M577.509944,535.124425 L523.207521,589.142574 L577.509944,621.801594 L622.475997,595.561075 L577.509944,535.124425 Z M696.159815,496.993131 L592.755152,528.620642 L640.754815,586.100842 L677.692158,562.713215 L696.159815,496.993131 Z M459.465171,464.726003 L434.991211,536.696054 L506.71963,581.694596 L559.647385,522.612309 L459.465171,464.726003 Z M714.103595,493.155432 L700.90719,550.329022 L751.859241,519.27615 L714.103595,493.155432 Z M433.67949,489.100466 L406.850117,519.302547 L419.865804,527.558676 L433.67949,489.100466 Z M430.41643,461.94824 L326.087877,472.220683 L390.618072,511.655577 L430.41643,461.94824 Z M494.824794,312.251589 L581.664405,511.174342 L688.904736,477.914285 L494.824794,312.251589 Z M769.612152,306.793528 L717.959568,476.35687 L773.774735,507.082827 L792.514483,493.659003 L769.612152,306.793528 Z M477.715561,310.880982 L463.010474,444.670473 L557.763055,499.151582 L477.715561,310.880982 Z M827.50861,372.948146 L816.509238,479.380327 L830.345259,473.371993 L827.50861,372.948146 Z M683.146158,291.70061 L501.231111,291.70061 L698.302022,461.562439 L683.146158,291.70061 Z M824.960297,220.510281 L780.063282,272.233933 L805.954551,458.134907 L824.960297,220.510281 Z M327.275736,415.682648 L327.275736,448.4635 L400.192014,441.58407 L327.275736,415.682648 Z M462.486597,295.706842 L326.936638,358.027823 L326.936638,397.147984 L446.230186,438.66417 L462.486597,295.706842 Z M761.526588,278.041245 L697.999473,287.732957 L713.646726,436.280329 L761.526588,278.041245 Z M326.926485,229.99488 L326.926485,337.748935 L445.933729,281.085007 L326.926485,229.99488 Z M744.987933,122.831709 L701.902149,270.970945 L761.059566,259.147177 L744.987933,122.831709 Z M594.911573,179.065165 L498.185318,270.587175 L669.192366,270.587175 L594.911573,179.065165 Z M442.934639,162.266602 L477.006906,264.779863 L571.121901,175.62951 L442.934639,162.266602 Z M425.214216,162.33361 L338.878176,213.921216 L458.141266,264.552444 L425.214216,162.33361 Z M629.192985,57.5481876 L690.259099,253.232248 L729.127475,117.830517 L629.192985,57.5481876 Z M763.321575,136.89921 L773.581835,245.812697 L832.420459,180.878426 L763.321575,136.89921 Z M618.443368,70.3100591 L601.380837,162.863578 L669.972089,242.28973 L618.443368,70.3100591 Z M385.740743,139.906423 L326.877753,174.987863 L326.877753,198.791749 L406.791232,151.912938 L385.740743,139.906423 Z M549.350575,42.8958941 L476.887105,87.3441625 L443.454454,140.919656 L583.185271,156.759809 L549.350575,42.8958941 Z M444.609825,106.059544 L407.851167,125.351595 L424.641607,139.376455 L444.609825,106.059544 Z M577.645989,25.4394408 L563.066795,34.3514303 L590.145923,128.606532 L605.100765,43.8441509 L577.645989,25.4394408 Z" id="core-emblem" fill="#000000"></path>
        <g id="nova-logo-black-outlined" transform="translate(67.000000, 690.000000)" fill="#000000">
            <path d="M885.297263,41.7062818 C963.189463,46.4262828 1010.6861,55.4452043 1011.3512,68.0040315 C1011.96794,79.9041601 970.435712,93.0392293 900.592442,105.304791 L930.794338,171.381685 C932.378936,174.847993 930.853509,178.942561 927.387201,180.527158 C926.486702,180.938815 925.508164,181.151877 924.518033,181.151877 L801.938449,181.151877 C798.127119,181.151877 795.037425,178.062183 795.037425,174.250853 C795.037425,173.261918 795.249973,172.284533 795.66067,171.384911 L807.01444,146.514748 C808.417121,143.442209 811.483944,141.470953 814.861517,141.470896 L860.18706,141.470127 L847.491542,113.688002 L845.427716,113.981737 L845.427716,113.981737 L841.268819,114.567476 L841.268819,114.567476 L837.068586,115.150858 L837.068586,115.150858 L832.827401,115.731824 L832.827401,115.731824 L828.545652,116.310315 L828.545652,116.310315 L824.223723,116.886274 L824.223723,116.886274 L819.862001,117.459641 C819.131753,117.554982 818.399863,117.650214 817.666338,117.745334 L813.24565,118.314703 L813.24565,118.314703 L808.786132,118.881333 C808.039665,118.97554 807.291596,119.069631 806.541934,119.163603 L802.024897,119.726016 L802.024897,119.726016 L797.469996,120.285545 L797.469996,120.285545 L772.400843,175.104106 C770.716504,178.788586 767.037613,181.151877 762.986392,181.151877 L720.7597,181.151877 C717.901202,181.151877 715.583932,178.834607 715.583932,175.976109 C715.583932,175.233511 715.743729,174.499607 716.052471,173.824233 L737.458754,127.016172 L731.474144,127.628072 L731.474144,127.628072 L725.443991,128.234671 C724.435206,128.335323 723.424551,128.435751 722.412039,128.535951 L716.314789,129.134414 C713.255129,129.432267 710.179,129.728039 707.086766,130.021675 L700.880933,130.606084 C699.843085,130.703005 698.803474,130.799685 697.762115,130.896121 L691.49308,131.471802 C690.444779,131.567256 689.394757,131.662462 688.343026,131.757419 L682.01225,132.324149 C680.95374,132.418099 679.893549,132.511796 678.831691,132.605236 L660.31814,173.088165 C658.072358,178.000815 653.167165,181.151877 647.76553,181.151877 L608.564767,181.151877 C603.163132,181.151877 598.257939,178.000815 596.012157,173.088165 L580.956309,140.147014 C557.237222,141.728642 532.97676,143.175296 508.294096,144.468859 C499.078871,144.951809 489.919943,145.407385 480.823579,145.835876 C464.266845,167.315005 438.27813,181.151877 409.05764,181.151877 C381.97907,181.151877 357.675849,169.269198 341.077908,150.433771 L335.063547,150.53647 L335.063547,150.53647 L329.083977,150.630107 C328.090312,150.644959 327.098119,150.659435 326.107411,150.673535 L320.181055,150.753623 C318.211599,150.778817 316.24817,150.802511 314.290859,150.824707 L308.43737,150.886812 C307.464878,150.896416 306.493938,150.905647 305.524562,150.914504 L299.727161,150.963183 C298.764085,150.970552 297.802595,150.97755 296.842704,150.984176 L291.10262,151.019481 L291.10262,151.019481 L285.401433,151.045901 C283.507581,151.053229 281.620302,151.05908 279.739689,151.063458 L274.117936,151.072175 L274.117936,151.072175 L268.536721,151.072077 L268.536721,151.072077 L282.344783,168.58091 C284.99979,171.947765 284.422724,176.829448 281.055869,179.484455 C279.686237,180.564508 277.992804,181.151877 276.248554,181.151877 L225.154594,181.151877 C220.902568,181.151877 216.88788,179.192028 214.272437,175.83954 L194.212209,150.139831 L189.946829,150.026682 L189.946829,150.026682 L185.71873,149.907166 L185.71873,149.907166 L181.528271,149.7813 C180.833018,149.759794 180.139347,149.738024 179.447268,149.715991 L175.31394,149.58063 L175.31394,149.58063 L169.186316,149.365764 L169.186316,149.365764 L165.150001,149.214661 L165.150001,149.214661 L161.153118,149.057291 L161.153118,149.057291 L157.196026,148.893669 C156.539847,148.865879 155.88534,148.837829 155.232514,148.80952 L151.335782,148.636552 C150.689707,148.607206 150.045328,148.577602 149.402651,148.547739 L149.406616,175.976109 C149.406616,178.834607 147.089346,181.151877 144.230848,181.151877 L97.6489368,181.151877 C94.7904391,181.151877 92.4731688,178.834607 92.4731688,175.976109 L92.4613843,144.835106 C91.3063765,144.733163 90.1608103,144.630019 89.0247654,144.52568 L85.6452748,144.209077 C85.0868136,144.155714 84.5307528,144.102051 83.9771023,144.048092 L80.6842025,143.720766 C30.0950481,138.591961 0.525280373,130.896777 0,121.005976 C-0.346717474,114.258067 12.8544486,107.113074 37.0861251,99.9546977 L38.9718141,99.4040335 C40.2433877,99.036915 41.5437996,98.6697872 42.8727094,98.3027018 L44.887405,97.7521121 C46.5840583,97.2933245 48.3249736,96.8346437 50.109486,96.3761707 L52.271785,95.8261093 C52.9994985,95.6427931 53.734145,95.4595165 54.4756819,95.2762862 L56.7209213,94.7267401 L56.7209213,94.7267401 L59.007248,94.17751 C59.3917122,94.0860001 59.7778778,93.994505 60.1657393,93.9030255 L59.2812869,94.2070817 L59.2812869,94.2070817 L58.4185733,94.5107518 L58.4185733,94.5107518 L57.5776846,94.8140242 L57.5776846,94.8140242 L56.758707,95.1168873 L56.758707,95.1168873 L55.9617268,95.4193293 L55.9617268,95.4193293 L55.1868302,95.7213388 L55.1868302,95.7213388 L54.4341033,96.0229039 C54.3105011,96.0731271 54.1878263,96.1233313 54.0660805,96.1735162 L53.34677,96.4743931 C53.2287479,96.5245001 53.1116586,96.5745874 52.9955038,96.6246547 L52.3098035,96.9248171 C52.1973939,96.9748035 52.0859225,97.0247695 51.9753909,97.0747149 L51.3234948,97.3741365 L51.3234948,97.3741365 L50.6942426,97.6730497 C50.5912591,97.7228256 50.4892226,97.7725798 50.3881349,97.8223121 L49.7930102,98.1204409 L49.7930102,98.1204409 L49.220745,98.4180323 L49.220745,98.4180323 L48.6714253,98.7150744 L48.6714253,98.7150744 L48.1451375,99.0115558 C48.0593469,99.060922 47.9745197,99.1102643 47.8906574,99.1595826 L47.399079,99.4552009 C47.2390893,99.5536426 47.0829741,99.6519861 46.9307479,99.7502293 L46.4857503,100.044656 C46.4135333,100.093676 46.3422921,100.142671 46.2720285,100.19164 L45.8621929,100.485143 C43.606432,102.146548 42.4849507,103.777574 42.5683371,105.36868 C43.6529531,126.064387 248.172523,132.169235 499.375582,119.004241 C750.578642,105.839246 953.339702,78.3897243 952.255086,57.6940178 C951.989572,52.6277088 939.532803,48.4357868 917.184346,45.186893 L915.299126,44.9183363 C914.66312,44.829546 914.019531,44.7414848 913.368407,44.6541543 L911.392485,44.3943557 C911.059414,44.3514218 910.724472,44.3086708 910.387665,44.2661031 L908.344493,44.0128964 L908.344493,44.0128964 L906.256856,43.7640953 L906.256856,43.7640953 L904.12505,43.5197087 L904.12505,43.5197087 L901.949373,43.2797453 L901.949373,43.2797453 L899.730118,43.0442139 L899.730118,43.0442139 L897.467582,42.8131235 L897.467582,42.8131235 L895.162061,42.5864828 C894.774241,42.5490807 894.384643,42.5118643 893.993273,42.4748339 L891.623828,42.2548843 L891.623828,42.2548843 L889.212136,42.0394066 L889.212136,42.0394066 L886.758495,41.8284095 L886.758495,41.8284095 L885.297263,41.7062818 Z M143.550034,0 C147.248452,0 150.742968,1.69464866 153.033058,4.59874609 L232.63295,105.563022 L226.224202,105.549706 L226.224202,105.549706 L221.48014,105.532346 L221.48014,105.532346 L213.695084,105.48934 L213.695084,105.48934 L206.065789,105.428698 L206.065789,105.428698 L200.077304,105.367456 L200.077304,105.367456 L195.654398,105.314083 L195.654398,105.314083 L189.850179,105.232977 L189.850179,105.232977 L186.988523,105.188156 L186.988523,105.188156 L182.747356,105.115582 L182.747356,105.115582 L177.189664,105.008827 L177.189664,105.008827 L171.74501,104.890631 L171.74501,104.890631 L167.736987,104.794463 L167.736987,104.794463 L165.101409,104.726762 L165.101409,104.726762 L161.203366,104.619823 L161.203366,104.619823 L158.641942,104.544932 L158.641942,104.544932 L149.406616,92.6941789 L149.384506,104.241176 L145.283683,104.088568 L145.283683,104.088568 L142.2682,103.968586 L142.2682,103.968586 L138.328793,103.801232 L138.328793,103.801232 L135.435891,103.670175 L135.435891,103.670175 L132.596453,103.534359 L132.596453,103.534359 L129.811038,103.39378 L129.811038,103.39378 L126.18215,103.198918 L126.18215,103.198918 L123.524956,103.047197 L123.524956,103.047197 L120.069056,102.837458 L120.069056,102.837458 L117.543122,102.67456 L117.543122,102.67456 L115.890901,102.563296 L115.890901,102.563296 L113.460584,102.392394 L113.460584,102.392394 L111.872623,102.275787 L111.872623,102.275787 L108.774849,102.036151 L108.774849,102.036151 L106.520547,101.850796 L106.520547,101.850796 L105.05086,101.724544 L105.05086,101.724544 L103.607911,101.596142 L103.607911,101.596142 L101.493981,101.399506 L101.493981,101.399506 L100.118599,101.265724 L100.118599,101.265724 L98.7705324,101.129787 L98.7705324,101.129787 L97.4499476,100.991692 L97.4499476,100.991692 L95.5209598,100.7805 L95.5209598,100.7805 L94.2698019,100.637004 L94.2698019,100.637004 L92.4457292,100.417701 L92.4457292,100.417701 L92.4731688,5.17576792 C92.4731688,2.31727023 94.7904391,0 97.6489368,0 L143.550034,0 Z M409.05764,0 C459.081349,0 499.633578,40.552229 499.633578,90.5759386 C499.633578,93.4826103 499.496662,96.3573036 499.228927,99.1939209 C484.79725,99.8263339 470.452671,100.412247 456.239722,100.95188 L456.248348,100.94932 C456.979516,97.607792 457.364807,94.13686 457.364807,90.5759386 C457.364807,63.8966268 435.736952,42.2687713 409.05764,42.2687713 C382.378328,42.2687713 360.750473,63.8966268 360.750473,90.5759386 C360.750473,95.1938506 361.398444,99.6604209 362.608424,103.889688 L355.865601,104.052101 L355.865601,104.052101 L349.165991,104.206198 L349.165991,104.206198 L342.51086,104.351998 L342.51086,104.351998 L335.901474,104.48952 L335.901474,104.48952 L329.339098,104.618785 L329.339098,104.618785 L322.824998,104.739813 C321.743408,104.759299 320.663882,104.778442 319.586447,104.797244 C318.861047,100.16379 318.481701,95.4141645 318.481701,90.5759386 C318.481701,40.552229 359.03393,0 409.05764,0 Z M567.169819,0 C571.22105,0 574.899948,2.36330277 576.584282,6.04779669 L616.390116,93.123231 C597.929636,94.2332825 579.392586,95.2718923 560.878674,96.2379122 L520.235918,7.32764395 C519.04747,4.72791326 520.19154,1.65698742 522.791271,0.468539105 C523.466645,0.159796593 524.200549,0 524.943147,0 L567.169819,0 Z M731.38715,0 C734.245647,0 736.562918,2.31727023 736.562918,5.17576792 C736.562918,5.91836627 736.403121,6.6522697 736.094379,7.32764395 L699.406745,87.5910198 C680.03658,89.0156667 660.402834,90.3595929 640.629766,91.6213678 L679.746014,6.04779669 C681.430348,2.36330277 685.109247,0 689.160478,0 L731.38715,0 Z M843.582083,0 C848.983718,0 853.888911,3.15106246 856.134693,8.0637117 L884.524712,70.1259559 L882.046079,70.4268025 L882.046079,70.4268025 L877.056631,71.0249119 C876.221513,71.1241982 875.384636,71.223285 874.546016,71.3221723 L869.493506,71.9130988 L869.493506,71.9130988 L864.399957,72.4992251 C863.547656,72.5965123 862.693679,72.6935991 861.838043,72.7904853 L856.684436,73.3693942 L856.684436,73.3693942 L851.491794,73.9434799 C850.623145,74.0387584 849.752903,74.1338355 848.881084,74.2287111 L843.63139,74.7955447 C841.875275,74.983682 840.112987,75.1710116 838.344662,75.357532 L833.021702,75.9146639 C832.131567,76.007114 831.239956,76.0993615 830.346885,76.1914061 L823.981701,62.2713891 L817.014789,77.5398305 L813.612574,77.8759472 L813.612574,77.8759472 L806.770319,78.542458 C805.625805,78.6529066 804.479244,78.7630365 803.330668,78.8728476 L796.415295,79.527884 L796.415295,79.527884 L789.453123,80.1752484 L789.453123,80.1752484 L782.445709,80.8149229 L782.445709,80.8149229 L775.39461,81.4468895 C774.215873,81.551574 773.035381,81.6559365 771.853166,81.7599768 L764.73946,82.380348 C762.361506,82.5858473 759.97692,82.7900544 757.585961,82.9929665 L791.82871,8.0637117 C794.074492,3.15106246 798.979685,0 804.38132,0 L843.582083,0 Z M278.800814,0 C281.659312,0 283.976582,2.31727023 283.976582,5.17576792 L283.976582,66.1449544 C283.976582,69.0034521 281.659312,71.3207224 278.800814,71.3207224 C277.214279,71.3207224 275.715384,70.5930763 274.734017,69.3464754 L227.836146,9.7735037 C225.773303,7.15313547 226.225266,3.35664259 228.845634,1.29379952 C229.910254,0.455694556 231.225812,0 232.580742,0 L278.800814,0 Z" id="nova-logo-outlined"></path>
        </g>
    </g>
</svg>