<?xml version="1.0" encoding="UTF-8"?>
<svg width="1161px" height="986px" viewBox="0 0 1161 986" version="1.1" xmlns="http://www.w3.org/2000/svg" xmlns:xlink="http://www.w3.org/1999/xlink">
    <title>nova-relief-logo-white</title>
    <g id="nova-relief-logo-white" stroke="none" stroke-width="1" fill="none" fill-rule="evenodd">
        <path d="M173.5953,969 L173.5953,946.7135 L177.0434,946.7135 L189.322,969 L205.5533,969 L191.9291,945.6202 C196.246233,944.330667 199.512117,942.144067 201.72675,939.0604 C203.941383,935.976733 205.0487,932.472567 205.0487,928.5479 C205.0487,925.071767 204.235733,921.918017 202.6098,919.08665 C200.983867,916.255283 198.53095,914.026633 195.25105,912.4007 C191.97115,910.774767 188.004433,909.9618 183.3509,909.9618 L183.3509,909.9618 L159.2142,909.9618 L159.2142,969 L173.5953,969 Z M182.5099,936.5374 L173.5953,936.5374 L173.5953,921.904 L182.5099,921.904 C185.145033,921.904 187.121383,922.548767 188.43895,923.8383 C189.756517,925.127833 190.4153,926.893933 190.4153,929.1366 C190.4153,931.4914 189.756517,933.313567 188.43895,934.6031 C187.121383,935.892633 185.145033,936.5374 182.5099,936.5374 L182.5099,936.5374 Z M368.110402,969 L368.110402,957.4783 L346.328502,957.4783 L346.328502,944.5269 L365.587402,944.5269 L365.587402,933.4257 L346.328502,933.4257 L346.328502,921.4835 L368.110402,921.4835 L368.110402,909.9618 L331.947402,909.9618 L331.947402,969 L368.110402,969 Z M528.565004,969 L528.565004,957.8988 L509.726604,957.8988 L509.726604,909.9618 L495.345504,909.9618 L495.345504,969 L528.565004,969 Z M667.742306,969 L667.742306,909.9618 L653.361206,909.9618 L653.361206,969 L667.742306,969 Z M832.233708,969 L832.233708,957.4783 L810.451808,957.4783 L810.451808,944.5269 L829.710708,944.5269 L829.710708,933.4257 L810.451808,933.4257 L810.451808,921.4835 L832.233708,921.4835 L832.233708,909.9618 L796.070708,909.9618 L796.070708,969 L832.233708,969 Z M973.84991,969 L973.84991,945.1156 L991.84731,945.1156 L991.84731,933.9303 L973.84991,933.9303 L973.84991,921.4835 L997.90251,921.4835 L997.90251,909.9618 L959.46881,909.9618 L959.46881,969 L973.84991,969 Z" id="RELIEF" fill="#FFFFFF" fill-rule="nonzero"></path>
        <path d="M672.613199,26 L672.612922,65.5009574 C662.579361,69.7907714 652.251194,74.8421208 648.121895,78.5905767 C642.1092,84.0487248 611.249372,128.098413 600.884627,145.408807 C597.47298,151.106674 593.442713,160.091154 588.793823,172.362246 L588.793823,172.362246 L576.40778,183.907641 L572.892705,176.395451 C576.829324,161.299271 579.029039,152.779135 579.49185,150.835043 C580.018661,148.622112 582.976606,146.880298 583.379943,144.831025 C583.73385,143.032895 583.212037,140.728056 581.814504,137.916509 L581.814504,137.916509 L566.934811,139.929245 L567.797515,132.262853 C567.589333,131.176437 564.227683,128.43626 561.560989,129.232523 C554.89791,131.222089 550.20315,132.67271 547.028274,134.443512 C547.000786,134.458843 546.97245,134.47497 546.943266,134.491892 L546.757989,134.602965 C544.347418,136.090541 537.29395,141.932244 525.597586,152.128072 L525.597586,152.128072 L527.334169,153.989559 L534.273306,154.668174 C526.857166,160.066016 522.37626,164.514399 520.830589,168.013323 C518.607422,173.045886 515.692436,179.834909 512.085632,188.380391 C506.151256,194.573845 501.764167,199.554975 498.924365,203.323781 C497.479943,205.633054 495.659266,208.072332 493.462334,210.641615 L493.462334,210.641615 L495.367886,212.684224 L499.861039,211.390859 L516.751757,197.411041 L525.521674,194.728865 L532.711204,188.776989 L520.637013,204.197025 L547.281973,186.278364 L547.994888,208.254868 L531.74392,226.600633 L550.506299,213.288546 L553.488932,233.596152 L548.635062,238.120588 L546.403162,251.49895 C553.568333,263.289002 562.338833,272.690321 572.71466,279.702908 C583.090487,286.715494 587.592815,286.284723 586.221644,278.410593 L586.221644,278.410593 L591.075515,273.886157 L611.133977,278.276881 L596.540026,296.057211 L615.982283,281.13227 L637.864594,283.376158 L618.123527,308.695276 L634.354619,297.731127 L627.913269,304.484995 L624.624761,313.042832 L609.49499,328.910253 L607.890814,333.300387 L609.796367,335.342996 C612.513701,333.331546 615.075048,331.68621 617.480407,330.406989 C621.439683,327.838176 626.716763,323.81105 633.311647,318.325611 C642.091438,315.325183 649.070064,312.89208 654.247526,311.0263 C657.847191,309.729104 662.599146,305.571265 668.503391,298.552784 L668.503391,298.552784 L668.696583,305.519493 L670.433166,307.38098 C670.878751,306.936987 671.316662,306.500104 671.746899,306.070331 L673.014589,304.802341 C682.833631,294.967577 688.354394,289.115114 689.576877,287.244951 C691.565564,284.202643 693.34074,279.622446 695.791074,273.117133 C696.771745,270.513579 694.271608,266.97036 693.201913,266.686986 L693.201913,266.686986 L685.490852,267.012453 L688.537471,252.315546 C685.829099,250.72587 683.565323,250.044766 681.746144,250.272234 C680.758876,250.395681 679.800778,251.101617 678.825502,251.847353 L678.237905,252.295228 C677.352305,252.961181 676.445283,253.571456 675.483054,253.730432 C673.51061,254.056312 664.854268,255.655427 649.514026,258.527776 L649.514026,258.527776 L642.262235,254.49869 L654.648278,242.953295 C661.675255,240.840454 667.663811,238.848732 672.613945,236.978127 L672.612922,65.5009574 C683.370163,60.9017365 693.788769,57.1778653 695.866443,56.8734621 C698.543494,56.4812434 701.076887,56.6417055 703.466622,57.3548486 L707.47125,46.978176 L736.027893,30.8108108 L746.03726,33.0512004 L748.489277,35.6795786 L779.195462,36.8830617 C779.84356,37.1051609 780.439651,37.3006241 781.014823,37.505098 L781.326665,37.6177371 C784.324697,38.7193624 786.898273,40.2516903 793.604444,47.4402033 C800.426238,54.7526563 801.705268,57.3926861 802.596246,60.5271685 L802.685717,60.8478352 C802.700473,60.9016309 802.715168,60.9556188 802.729826,61.0098243 L802.817543,61.3378688 C802.919841,61.7241022 803.022826,62.1234593 803.135106,62.5445693 L802.194199,93.2472385 L804.646216,95.8756166 L806.183854,106.012754 L788.057188,133.360274 L777.422161,136.629655 C777.967162,139.062329 777.950579,141.599698 777.372412,144.241764 C776.505162,148.204862 760.717168,182.345165 752.368744,190.335401 C749.142153,193.423556 733.740932,203.192225 717.538738,212.877298 L715.768595,213.933195 C703.06764,221.493415 690.129899,228.852194 682.390595,232.777109 C679.777986,234.102069 676.519103,235.502408 672.613945,236.978127 L672.613199,243.689189 L890.392459,243.689189 L890.392459,431.310811 L672.613199,431.310811 L672.613199,649 L484.913949,649 L484.917596,575.526288 C630.2058,444.068893 704.875269,376.322725 708.926003,372.287785 C715.375955,365.862982 717.421975,357.484362 713.495918,353.573613 C709.56986,349.662863 701.158443,351.700906 694.708492,358.125709 C690.673564,362.144904 620.742912,433.535755 484.916535,572.298262 L484.917596,575.526288 C475.978318,583.614586 466.771699,591.944074 457.29774,600.514753 C466.788325,590.818568 475.99459,581.413071 484.916535,572.298262 L484.913949,431.310811 L404.670583,431.30723 C477.718583,365.259088 515.845354,330.642251 519.050897,327.456721 C527.219023,319.339588 529.810074,308.75399 524.838171,303.813126 C519.866268,298.872263 509.21417,301.447138 501.046043,309.564271 C497.666951,312.922268 457.793999,353.503717 381.427186,431.308621 L404.670583,431.30723 C353.628249,477.45841 285.535541,538.956001 200.392459,615.800003 C274.383736,540.383686 334.728646,478.886558 381.427186,431.308621 L267.13469,431.310811 L267.13469,243.689189 L484.913949,243.689189 L484.913949,26 L672.613199,26 Z M813.23381,257.463761 L813.130028,257.469487 C811.755015,257.705012 806.049733,259.393798 802.557142,260.665025 C798.047449,262.306455 794.560018,264.250184 791.787345,265.832132 L791.08005,266.236171 C790.273318,266.696956 789.530314,267.118882 788.842372,267.483227 C785.272556,269.373855 773.748437,269.099282 769.925575,269.833989 C768.388324,270.129429 762.483227,271.594452 756.355712,273.155198 L755.411822,273.395923 L755.411822,273.395923 L754.467776,273.637289 C748.02391,275.286841 741.804129,276.920459 740.624885,277.290459 C739.065933,277.779597 733.114651,283.471834 731.760258,286.918 C731.206194,288.32778 731.49109,290.555218 734.462222,294.714756 C734.599452,294.906875 736.204711,298.413481 737.943256,302.265987 L738.27047,302.991661 L738.27047,302.991661 L738.598852,303.721093 C740.56874,308.100265 742.496158,312.447577 742.480662,312.536273 C742.428666,312.833881 742.45443,313.079755 742.557954,313.273897 L742.557954,313.273897 L742.06976,313.73003 L742.04677,314.189132 L741.392473,314.80046 L741.312562,319.979422 C743.220608,322.146979 745.438468,324.594143 745.445777,324.601974 C746.906825,326.171802 747.734821,326.99729 749.759804,329.05559 L749.759804,329.05559 L754.9217,329.336985 L755.575997,328.725657 L756.034695,328.734703 L756.522889,328.27857 C756.708961,328.395586 756.951963,328.438488 757.251897,328.407278 C757.264312,328.405986 757.355903,328.447885 757.51575,328.527096 L757.73963,328.639682 C760.504793,330.045238 774.067077,337.359071 774.436169,337.664901 C778.370268,340.924713 780.568096,341.364846 782.010363,340.909398 C785.535941,339.796069 791.618435,334.244814 792.214181,332.720757 C792.642841,331.624145 794.527992,326.048782 796.511297,320.06313 L796.817012,319.139572 C796.919053,318.831007 797.021169,318.52191 797.123177,318.212833 L797.428692,317.286203 C799.410049,311.270604 801.280587,305.470634 801.681969,303.954756 C802.680132,300.185043 803.210642,288.647494 805.342023,285.211334 C807.219694,282.1842 810.375691,278.090924 813.087113,271.978989 C814.596414,268.576809 816.675797,262.992164 817.006209,261.634263 C817.142136,261.075645 816.197359,259.370183 815.763664,258.902008 C815.329968,258.433832 813.695686,257.372595 813.130028,257.469487 Z" id="red-cross-logo-copy" fill="#FFFFFF" fill-rule="nonzero"></path>
        <g id="nova-logo-white-outlined" transform="translate(67.000000, 690.000000)" fill="#FFFFFF">
            <path d="M885.297263,41.7062818 C963.189463,46.4262828 1010.6861,55.4452043 1011.3512,68.0040315 C1011.96794,79.9041601 970.435712,93.0392293 900.592442,105.304791 L930.794338,171.381685 C932.378936,174.847993 930.853509,178.942561 927.387201,180.527158 C926.486702,180.938815 925.508164,181.151877 924.518033,181.151877 L801.938449,181.151877 C798.127119,181.151877 795.037425,178.062183 795.037425,174.250853 C795.037425,173.261918 795.249973,172.284533 795.66067,171.384911 L807.01444,146.514748 C808.417121,143.442209 811.483944,141.470953 814.861517,141.470896 L860.18706,141.470127 L847.491542,113.688002 L845.427716,113.981737 L845.427716,113.981737 L841.268819,114.567476 L841.268819,114.567476 L837.068586,115.150858 L837.068586,115.150858 L832.827401,115.731824 L832.827401,115.731824 L828.545652,116.310315 L828.545652,116.310315 L824.223723,116.886274 L824.223723,116.886274 L819.862001,117.459641 C819.131753,117.554982 818.399863,117.650214 817.666338,117.745334 L813.24565,118.314703 L813.24565,118.314703 L808.786132,118.881333 C808.039665,118.97554 807.291596,119.069631 806.541934,119.163603 L802.024897,119.726016 L802.024897,119.726016 L797.469996,120.285545 L797.469996,120.285545 L772.400843,175.104106 C770.716504,178.788586 767.037613,181.151877 762.986392,181.151877 L720.7597,181.151877 C717.901202,181.151877 715.583932,178.834607 715.583932,175.976109 C715.583932,175.233511 715.743729,174.499607 716.052471,173.824233 L737.458754,127.016172 L731.474144,127.628072 L731.474144,127.628072 L725.443991,128.234671 C724.435206,128.335323 723.424551,128.435751 722.412039,128.535951 L716.314789,129.134414 C713.255129,129.432267 710.179,129.728039 707.086766,130.021675 L700.880933,130.606084 C699.843085,130.703005 698.803474,130.799685 697.762115,130.896121 L691.49308,131.471802 C690.444779,131.567256 689.394757,131.662462 688.343026,131.757419 L682.01225,132.324149 C680.95374,132.418099 679.893549,132.511796 678.831691,132.605236 L660.31814,173.088165 C658.072358,178.000815 653.167165,181.151877 647.76553,181.151877 L608.564767,181.151877 C603.163132,181.151877 598.257939,178.000815 596.012157,173.088165 L580.956309,140.147014 C557.237222,141.728642 532.97676,143.175296 508.294096,144.468859 C499.078871,144.951809 489.919943,145.407385 480.823579,145.835876 C464.266845,167.315005 438.27813,181.151877 409.05764,181.151877 C381.97907,181.151877 357.675849,169.269198 341.077908,150.433771 L335.063547,150.53647 L335.063547,150.53647 L329.083977,150.630107 C328.090312,150.644959 327.098119,150.659435 326.107411,150.673535 L320.181055,150.753623 C318.211599,150.778817 316.24817,150.802511 314.290859,150.824707 L308.43737,150.886812 C307.464878,150.896416 306.493938,150.905647 305.524562,150.914504 L299.727161,150.963183 C298.764085,150.970552 297.802595,150.97755 296.842704,150.984176 L291.10262,151.019481 L291.10262,151.019481 L285.401433,151.045901 C283.507581,151.053229 281.620302,151.05908 279.739689,151.063458 L274.117936,151.072175 L274.117936,151.072175 L268.536721,151.072077 L268.536721,151.072077 L282.344783,168.58091 C284.99979,171.947765 284.422724,176.829448 281.055869,179.484455 C279.686237,180.564508 277.992804,181.151877 276.248554,181.151877 L225.154594,181.151877 C220.902568,181.151877 216.88788,179.192028 214.272437,175.83954 L194.212209,150.139831 L189.946829,150.026682 L189.946829,150.026682 L185.71873,149.907166 L185.71873,149.907166 L181.528271,149.7813 C180.833018,149.759794 180.139347,149.738024 179.447268,149.715991 L175.31394,149.58063 L175.31394,149.58063 L169.186316,149.365764 L169.186316,149.365764 L165.150001,149.214661 L165.150001,149.214661 L161.153118,149.057291 L161.153118,149.057291 L157.196026,148.893669 C156.539847,148.865879 155.88534,148.837829 155.232514,148.80952 L151.335782,148.636552 C150.689707,148.607206 150.045328,148.577602 149.402651,148.547739 L149.406616,175.976109 C149.406616,178.834607 147.089346,181.151877 144.230848,181.151877 L97.6489368,181.151877 C94.7904391,181.151877 92.4731688,178.834607 92.4731688,175.976109 L92.4613843,144.835106 C91.3063765,144.733163 90.1608103,144.630019 89.0247654,144.52568 L85.6452748,144.209077 C85.0868136,144.155714 84.5307528,144.102051 83.9771023,144.048092 L80.6842025,143.720766 C30.0950481,138.591961 0.525280373,130.896777 0,121.005976 C-0.346717474,114.258067 12.8544486,107.113074 37.0861251,99.9546977 L38.9718141,99.4040335 C40.2433877,99.036915 41.5437996,98.6697872 42.8727094,98.3027018 L44.887405,97.7521121 C46.5840583,97.2933245 48.3249736,96.8346437 50.109486,96.3761707 L52.271785,95.8261093 C52.9994985,95.6427931 53.734145,95.4595165 54.4756819,95.2762862 L56.7209213,94.7267401 L56.7209213,94.7267401 L59.007248,94.17751 C59.3917122,94.0860001 59.7778778,93.994505 60.1657393,93.9030255 L59.2812869,94.2070817 L59.2812869,94.2070817 L58.4185733,94.5107518 L58.4185733,94.5107518 L57.5776846,94.8140242 L57.5776846,94.8140242 L56.758707,95.1168873 L56.758707,95.1168873 L55.9617268,95.4193293 L55.9617268,95.4193293 L55.1868302,95.7213388 L55.1868302,95.7213388 L54.4341033,96.0229039 C54.3105011,96.0731271 54.1878263,96.1233313 54.0660805,96.1735162 L53.34677,96.4743931 C53.2287479,96.5245001 53.1116586,96.5745874 52.9955038,96.6246547 L52.3098035,96.9248171 C52.1973939,96.9748035 52.0859225,97.0247695 51.9753909,97.0747149 L51.3234948,97.3741365 L51.3234948,97.3741365 L50.6942426,97.6730497 C50.5912591,97.7228256 50.4892226,97.7725798 50.3881349,97.8223121 L49.7930102,98.1204409 L49.7930102,98.1204409 L49.220745,98.4180323 L49.220745,98.4180323 L48.6714253,98.7150744 L48.6714253,98.7150744 L48.1451375,99.0115558 C48.0593469,99.060922 47.9745197,99.1102643 47.8906574,99.1595826 L47.399079,99.4552009 C47.2390893,99.5536426 47.0829741,99.6519861 46.9307479,99.7502293 L46.4857503,100.044656 C46.4135333,100.093676 46.3422921,100.142671 46.2720285,100.19164 L45.8621929,100.485143 C43.606432,102.146548 42.4849507,103.777574 42.5683371,105.36868 C43.6529531,126.064387 248.172523,132.169235 499.375582,119.004241 C750.578642,105.839246 953.339702,78.3897243 952.255086,57.6940178 C951.989572,52.6277088 939.532803,48.4357868 917.184346,45.186893 L915.299126,44.9183363 C914.66312,44.829546 914.019531,44.7414848 913.368407,44.6541543 L911.392485,44.3943557 C911.059414,44.3514218 910.724472,44.3086708 910.387665,44.2661031 L908.344493,44.0128964 L908.344493,44.0128964 L906.256856,43.7640953 L906.256856,43.7640953 L904.12505,43.5197087 L904.12505,43.5197087 L901.949373,43.2797453 L901.949373,43.2797453 L899.730118,43.0442139 L899.730118,43.0442139 L897.467582,42.8131235 L897.467582,42.8131235 L895.162061,42.5864828 C894.774241,42.5490807 894.384643,42.5118643 893.993273,42.4748339 L891.623828,42.2548843 L891.623828,42.2548843 L889.212136,42.0394066 L889.212136,42.0394066 L886.758495,41.8284095 L886.758495,41.8284095 L885.297263,41.7062818 Z M143.550034,0 C147.248452,0 150.742968,1.69464866 153.033058,4.59874609 L232.63295,105.563022 L226.224202,105.549706 L226.224202,105.549706 L221.48014,105.532346 L221.48014,105.532346 L213.695084,105.48934 L213.695084,105.48934 L206.065789,105.428698 L206.065789,105.428698 L200.077304,105.367456 L200.077304,105.367456 L195.654398,105.314083 L195.654398,105.314083 L189.850179,105.232977 L189.850179,105.232977 L186.988523,105.188156 L186.988523,105.188156 L182.747356,105.115582 L182.747356,105.115582 L177.189664,105.008827 L177.189664,105.008827 L171.74501,104.890631 L171.74501,104.890631 L167.736987,104.794463 L167.736987,104.794463 L165.101409,104.726762 L165.101409,104.726762 L161.203366,104.619823 L161.203366,104.619823 L158.641942,104.544932 L158.641942,104.544932 L149.406616,92.6941789 L149.384506,104.241176 L145.283683,104.088568 L145.283683,104.088568 L142.2682,103.968586 L142.2682,103.968586 L138.328793,103.801232 L138.328793,103.801232 L135.435891,103.670175 L135.435891,103.670175 L132.596453,103.534359 L132.596453,103.534359 L129.811038,103.39378 L129.811038,103.39378 L126.18215,103.198918 L126.18215,103.198918 L123.524956,103.047197 L123.524956,103.047197 L120.069056,102.837458 L120.069056,102.837458 L117.543122,102.67456 L117.543122,102.67456 L115.890901,102.563296 L115.890901,102.563296 L113.460584,102.392394 L113.460584,102.392394 L111.872623,102.275787 L111.872623,102.275787 L108.774849,102.036151 L108.774849,102.036151 L106.520547,101.850796 L106.520547,101.850796 L105.05086,101.724544 L105.05086,101.724544 L103.607911,101.596142 L103.607911,101.596142 L101.493981,101.399506 L101.493981,101.399506 L100.118599,101.265724 L100.118599,101.265724 L98.7705324,101.129787 L98.7705324,101.129787 L97.4499476,100.991692 L97.4499476,100.991692 L95.5209598,100.7805 L95.5209598,100.7805 L94.2698019,100.637004 L94.2698019,100.637004 L92.4457292,100.417701 L92.4457292,100.417701 L92.4731688,5.17576792 C92.4731688,2.31727023 94.7904391,0 97.6489368,0 L143.550034,0 Z M409.05764,0 C459.081349,0 499.633578,40.552229 499.633578,90.5759386 C499.633578,93.4826103 499.496662,96.3573036 499.228927,99.1939209 C484.79725,99.8263339 470.452671,100.412247 456.239722,100.95188 L456.248348,100.94932 C456.979516,97.607792 457.364807,94.13686 457.364807,90.5759386 C457.364807,63.8966268 435.736952,42.2687713 409.05764,42.2687713 C382.378328,42.2687713 360.750473,63.8966268 360.750473,90.5759386 C360.750473,95.1938506 361.398444,99.6604209 362.608424,103.889688 L355.865601,104.052101 L355.865601,104.052101 L349.165991,104.206198 L349.165991,104.206198 L342.51086,104.351998 L342.51086,104.351998 L335.901474,104.48952 L335.901474,104.48952 L329.339098,104.618785 L329.339098,104.618785 L322.824998,104.739813 C321.743408,104.759299 320.663882,104.778442 319.586447,104.797244 C318.861047,100.16379 318.481701,95.4141645 318.481701,90.5759386 C318.481701,40.552229 359.03393,0 409.05764,0 Z M567.169819,0 C571.22105,0 574.899948,2.36330277 576.584282,6.04779669 L616.390116,93.123231 C597.929636,94.2332825 579.392586,95.2718923 560.878674,96.2379122 L520.235918,7.32764395 C519.04747,4.72791326 520.19154,1.65698742 522.791271,0.468539105 C523.466645,0.159796593 524.200549,0 524.943147,0 L567.169819,0 Z M731.38715,0 C734.245647,0 736.562918,2.31727023 736.562918,5.17576792 C736.562918,5.91836627 736.403121,6.6522697 736.094379,7.32764395 L699.406745,87.5910198 C680.03658,89.0156667 660.402834,90.3595929 640.629766,91.6213678 L679.746014,6.04779669 C681.430348,2.36330277 685.109247,0 689.160478,0 L731.38715,0 Z M843.582083,0 C848.983718,0 853.888911,3.15106246 856.134693,8.0637117 L884.524712,70.1259559 L882.046079,70.4268025 L882.046079,70.4268025 L877.056631,71.0249119 C876.221513,71.1241982 875.384636,71.223285 874.546016,71.3221723 L869.493506,71.9130988 L869.493506,71.9130988 L864.399957,72.4992251 C863.547656,72.5965123 862.693679,72.6935991 861.838043,72.7904853 L856.684436,73.3693942 L856.684436,73.3693942 L851.491794,73.9434799 C850.623145,74.0387584 849.752903,74.1338355 848.881084,74.2287111 L843.63139,74.7955447 C841.875275,74.983682 840.112987,75.1710116 838.344662,75.357532 L833.021702,75.9146639 C832.131567,76.007114 831.239956,76.0993615 830.346885,76.1914061 L823.981701,62.2713891 L817.014789,77.5398305 L813.612574,77.8759472 L813.612574,77.8759472 L806.770319,78.542458 C805.625805,78.6529066 804.479244,78.7630365 803.330668,78.8728476 L796.415295,79.527884 L796.415295,79.527884 L789.453123,80.1752484 L789.453123,80.1752484 L782.445709,80.8149229 L782.445709,80.8149229 L775.39461,81.4468895 C774.215873,81.551574 773.035381,81.6559365 771.853166,81.7599768 L764.73946,82.380348 C762.361506,82.5858473 759.97692,82.7900544 757.585961,82.9929665 L791.82871,8.0637117 C794.074492,3.15106246 798.979685,0 804.38132,0 L843.582083,0 Z M278.800814,0 C281.659312,0 283.976582,2.31727023 283.976582,5.17576792 L283.976582,66.1449544 C283.976582,69.0034521 281.659312,71.3207224 278.800814,71.3207224 C277.214279,71.3207224 275.715384,70.5930763 274.734017,69.3464754 L227.836146,9.7735037 C225.773303,7.15313547 226.225266,3.35664259 228.845634,1.29379952 C229.910254,0.455694556 231.225812,0 232.580742,0 L278.800814,0 Z" id="nova-logo-outlined"></path>
        </g>
    </g>
</svg>