<?xml version="1.0" encoding="UTF-8"?>
<svg width="1172px" height="210px" viewBox="0 0 1172 210" version="1.1" xmlns="http://www.w3.org/2000/svg" xmlns:xlink="http://www.w3.org/1999/xlink">
    <title>nova-logo-black-outlined</title>
    <g id="nova-logo-black-outlined" stroke="none" stroke-width="1" fill="none" fill-rule="evenodd">
        <path d="M1026.27932,48.347935 C1116.57572,53.8195879 1171.63611,64.2747571 1172.40713,78.8335558 C1173.12208,92.6287592 1124.97592,107.855566 1044.01023,122.074396 L1079.02173,198.673922 C1080.85867,202.692233 1079.09032,207.438854 1075.07201,209.275796 C1074.02811,209.753008 1072.89374,210 1071.74593,210 L929.645759,210 C925.227481,210 921.645759,206.418278 921.645759,202 C921.645759,200.853578 921.892155,199.720547 922.368255,198.677661 L935.530093,169.846968 C937.156148,166.285133 940.711357,163.999957 944.626804,163.999891 L997.170361,163.999 L982.453103,131.792619 L980.060616,132.133131 L980.060616,132.133131 L975.239422,132.812148 L975.239422,132.812148 L970.370309,133.488433 L970.370309,133.488433 L965.453723,134.161917 L965.453723,134.161917 L960.490113,134.832532 L960.490113,134.832532 L955.479924,135.500211 L955.479924,135.500211 L950.423606,136.164885 C949.577067,136.27541 948.728624,136.385807 947.878287,136.496074 L942.753612,137.156114 L942.753612,137.156114 L937.583924,137.81298 C936.718583,137.922189 935.851386,138.031263 934.98234,138.140201 L929.745973,138.792177 L929.745973,138.792177 L924.465712,139.440809 L924.465712,139.440809 L895.404341,202.989132 C893.451773,207.260359 889.187025,210 884.490654,210 L835.539435,210 C832.225726,210 829.539435,207.313708 829.539435,204 C829.539435,203.139144 829.724678,202.288368 830.082588,201.505441 L854.897784,147.243278 L847.960135,147.952622 L847.960135,147.952622 L840.969691,148.65582 C839.800259,148.772501 838.628659,148.888922 837.454906,149.005079 L830.386679,149.698846 C826.839774,150.044131 823.273777,150.387004 819.68911,150.727402 L812.495009,151.404877 C811.291885,151.517232 810.086718,151.629308 808.879524,151.741102 L801.612156,152.408458 C800.396915,152.519114 799.179678,152.629482 797.960461,152.73956 L790.62152,153.396541 C789.394445,153.505452 788.16542,153.61407 786.934462,153.722391 L765.472661,200.652156 C762.869241,206.347136 757.182905,210 750.921069,210 L705.477652,210 C699.215816,210 693.52948,206.347136 690.926061,200.652156 L673.472595,162.465183 C645.976285,164.298683 617.852386,165.975714 589.239051,167.475275 C578.556317,168.035133 567.938846,168.563259 557.393902,169.059987 C538.200537,193.95963 508.073164,210 474.199361,210 C442.808576,210 414.635109,196.225024 395.393975,174.390088 L388.421837,174.509142 L388.421837,174.509142 L381.490031,174.617691 C380.338126,174.634908 379.187929,174.651689 378.039451,174.668034 L371.169334,174.760876 C368.886245,174.790083 366.610144,174.817549 364.341134,174.843281 L357.555488,174.915276 C356.428128,174.926409 355.302568,174.93711 354.17882,174.947378 L347.458192,175.003809 C346.341748,175.012351 345.227143,175.020463 344.11439,175.028144 L337.460209,175.069072 L337.460209,175.069072 L330.851117,175.099699 C328.655672,175.108194 326.467848,175.114977 324.28775,175.120052 L317.770743,175.130158 L317.770743,175.130158 L311.300729,175.130044 L311.300729,175.130044 L327.307702,195.427128 C330.385514,199.330149 329.71655,204.989231 325.81353,208.067043 C324.225787,209.319093 322.262677,210 320.240658,210 L261.010073,210 C256.08092,210 251.426899,207.728049 248.394952,203.841682 L225.140167,174.049339 L220.195533,173.918172 L220.195533,173.918172 L215.294117,173.779623 L215.294117,173.779623 L210.436334,173.633713 C209.630363,173.608782 208.826227,173.583546 208.023935,173.558003 L203.232382,173.401086 L203.232382,173.401086 L196.128944,173.152004 L196.128944,173.152004 L191.449852,172.976838 L191.449852,172.976838 L186.816473,172.794407 L186.816473,172.794407 L182.229221,172.604729 C181.468547,172.572513 180.709811,172.539996 179.953024,172.507178 L175.435743,172.306666 C174.686782,172.272647 173.939787,172.238328 173.194765,172.203709 L173.199361,204 C173.199361,207.313708 170.513069,210 167.199361,210 L113.199361,210 C109.885652,210 107.199361,207.313708 107.199361,204 L107.1857,167.899846 C105.846759,167.781668 104.518763,167.6621 103.201805,167.541144 L99.2841365,167.174123 C98.6367414,167.112261 97.9921288,167.050054 97.3503104,166.987501 L93.5330221,166.608049 C34.8876324,160.662491 0.608930364,151.741862 0,140.275968 C-0.401931632,132.453466 14.9014973,124.170646 42.9920263,115.87231 L45.178008,115.233954 C46.6520775,114.808372 48.1595777,114.38278 49.7001141,113.957237 L52.0356465,113.318967 C54.0024889,112.787118 56.020642,112.255393 58.0893349,111.723909 L60.5959763,111.086251 C61.4395769,110.873742 62.2912145,110.661279 63.1508399,110.44887 L65.7536299,109.81181 L65.7536299,109.81181 L68.4040502,109.175115 C68.8497396,109.069033 69.2974013,108.962967 69.7470292,108.85692 L68.7217292,109.209396 L68.7217292,109.209396 L67.7216299,109.561425 L67.7216299,109.561425 L66.7468312,109.912993 L66.7468312,109.912993 L65.7974329,110.264087 L65.7974329,110.264087 L64.8735349,110.614692 L64.8735349,110.614692 L63.9752374,110.964796 L63.9752374,110.964796 L63.1026401,111.314385 C62.9593544,111.372606 62.8171438,111.430805 62.6760103,111.488982 L61.8421507,111.837773 C61.7053339,111.89586 61.5695983,111.953923 61.434946,112.011964 L60.6400491,112.359926 C60.5097385,112.417873 60.3805154,112.475796 60.2523819,112.533695 L59.4966725,112.880799 L59.4966725,112.880799 L58.767213,113.227314 C58.6478295,113.285016 58.5295439,113.342694 58.4123582,113.400346 L57.7224609,113.745951 L57.7224609,113.745951 L57.0590634,114.090934 L57.0590634,114.090934 L56.4222655,114.435279 L56.4222655,114.435279 L55.8121673,114.778975 C55.7127148,114.836202 55.6143789,114.893402 55.5171617,114.950574 L54.9473003,115.293269 C54.7618324,115.407388 54.5808562,115.521392 54.4043882,115.635281 L53.8885255,115.976594 C53.8048081,116.033421 53.7222219,116.090218 53.640769,116.146986 L53.1656677,116.487228 C50.5506808,118.413209 49.2506056,120.303973 49.347271,122.14846 C50.6046103,146.139922 287.693568,153.216957 578.900279,137.95546 C870.106991,122.693963 1105.1574,90.8731523 1103.90006,66.8816902 C1103.59226,61.0085803 1089.15178,56.149102 1063.24437,52.3828275 L1061.05893,52.0715036 C1060.32164,51.9685736 1059.57556,51.8664889 1058.82075,51.765251 L1056.53016,51.4640801 C1056.14405,51.4143089 1055.75577,51.36475 1055.36533,51.3154034 L1052.99678,51.021874 L1052.99678,51.021874 L1050.57669,50.7334518 L1050.57669,50.7334518 L1048.1054,50.450147 L1048.1054,50.450147 L1045.58325,50.1719698 L1045.58325,50.1719698 L1043.01058,49.8989305 L1043.01058,49.8989305 L1040.38774,49.6310393 L1040.38774,49.6310393 L1037.71507,49.3683065 C1037.26549,49.3249481 1036.81385,49.2818051 1036.36015,49.2388777 L1033.61338,48.9839015 L1033.61338,48.9839015 L1030.81763,48.7341093 L1030.81763,48.7341093 L1027.97325,48.4895113 L1027.97325,48.4895113 L1026.27932,48.347935 Z M166.410129,0 C170.697513,0 174.748525,1.96451852 177.403307,5.33108845 L269.679345,122.37375 L262.250015,122.358314 L262.250015,122.358314 L256.750469,122.33819 L256.750469,122.33819 L247.725657,122.288334 L247.725657,122.288334 L238.881409,122.218036 L238.881409,122.218036 L231.939269,122.147041 L231.939269,122.147041 L226.812022,122.085168 L226.812022,122.085168 L220.083491,121.991146 L220.083491,121.991146 L216.766121,121.939188 L216.766121,121.939188 L211.849557,121.855057 L211.849557,121.855057 L205.406811,121.731301 L205.406811,121.731301 L199.095106,121.594283 L199.095106,121.594283 L194.448812,121.482799 L194.448812,121.482799 L191.393522,121.404318 L191.393522,121.404318 L186.874722,121.280348 L186.874722,121.280348 L183.905396,121.193532 L183.905396,121.193532 L173.199361,107.455566 L173.17373,120.841403 L168.419858,120.664492 L168.419858,120.664492 L164.924164,120.525403 L164.924164,120.525403 L160.357414,120.331399 L160.357414,120.331399 L157.003822,120.17947 L157.003822,120.17947 L153.712209,120.022027 L153.712209,120.022027 L150.483221,119.85906 L150.483221,119.85906 L146.276438,119.633167 L146.276438,119.633167 L143.196092,119.457285 L143.196092,119.457285 L139.189845,119.214145 L139.189845,119.214145 L136.261661,119.025306 L136.261661,119.025306 L134.346326,118.896323 L134.346326,118.896323 L131.528985,118.698206 L131.528985,118.698206 L129.688145,118.563029 L129.688145,118.563029 L126.097055,118.285231 L126.097055,118.285231 L123.48376,118.07036 L123.48376,118.07036 L121.780028,117.924001 L121.780028,117.924001 L120.107291,117.775152 L120.107291,117.775152 L117.656722,117.547202 L117.656722,117.547202 L116.062312,117.392115 L116.062312,117.392115 L114.499569,117.23453 L114.499569,117.23453 L112.968683,117.074444 L112.968683,117.074444 L110.732507,116.829621 L110.732507,116.829621 L109.282105,116.663272 L109.282105,116.663272 L107.167552,116.409046 L107.167552,116.409046 L107.199361,6 C107.199361,2.6862915 109.885652,0 113.199361,0 L166.410129,0 Z M474.199361,0 C532.18926,0 579.199361,47.0101013 579.199361,105 C579.199361,108.369554 579.040641,111.702037 578.73027,114.990381 C562.000373,115.723505 545.371445,116.402724 528.895108,117.028292 L528.905108,117.025324 C529.752713,113.151664 530.199361,109.127992 530.199361,105 C530.199361,74.072054 505.127307,49 474.199361,49 C443.271415,49 418.199361,74.072054 418.199361,105 C418.199361,110.353307 418.95052,115.53117 420.353188,120.433941 L412.536582,120.622218 L412.536582,120.622218 L404.770071,120.800855 L404.770071,120.800855 L397.055122,120.969873 L397.055122,120.969873 L389.393202,121.129295 L389.393202,121.129295 L381.785779,121.279146 L381.785779,121.279146 L374.23432,121.419447 C372.980488,121.442036 371.72905,121.464228 370.480035,121.486024 C369.639117,116.1147 369.199361,110.608705 369.199361,105 C369.199361,47.0101013 416.209462,0 474.199361,0 Z M657.490631,0 C662.187014,0 666.45177,2.73965465 668.404331,7.01089785 L714.549175,107.952944 C693.148895,109.23977 671.659852,110.443776 650.197632,111.563633 L603.082588,8.49455856 C601.704881,5.48082526 603.031143,1.9208598 606.044876,0.543153146 C606.827802,0.185243924 607.678579,0 608.539435,0 L657.490631,0 Z M847.859287,0 C851.172996,0 853.859287,2.6862915 853.859287,6 C853.859287,6.86085585 853.674043,7.71163214 853.316134,8.49455856 L810.786059,101.539738 C788.331228,103.191258 765.570842,104.749202 742.648947,106.211912 L787.994391,7.01089785 C789.946952,2.73965465 794.211708,0 798.908091,0 L847.859287,0 Z M977.921069,0 C984.182905,0 989.869241,3.6528637 992.472661,9.34784384 L1025.38374,81.293393 L1022.51039,81.6421489 L1022.51039,81.6421489 L1016.72638,82.3355062 C1015.75827,82.4506036 1014.78812,82.5654699 1013.81596,82.6801048 L1007.95884,83.3651353 L1007.95884,83.3651353 L1002.05415,84.0446012 C1001.06613,84.1573812 1000.07615,84.2699289 999.084259,84.3822441 L993.10995,85.0533432 L993.10995,85.0533432 L987.090388,85.718851 C986.083408,85.8293025 985.074582,85.9395205 984.063928,86.0495049 L977.978228,86.7066057 C975.942455,86.9247036 973.899527,87.1418651 971.849598,87.3580886 L965.678966,88.0039427 C964.647079,88.1111154 963.61348,88.2180531 962.57819,88.3247556 L955.199361,72.188 L947.12298,89.8879143 L943.178968,90.277557 L943.178968,90.277557 L935.247095,91.0502085 C933.92032,91.1782458 932.591171,91.3059138 931.259687,91.4332121 L923.243052,92.1925619 L923.243052,92.1925619 L915.172166,92.9430179 L915.172166,92.9430179 L907.048834,93.6845595 L907.048834,93.6845595 L898.87486,94.4171657 C897.508411,94.5385209 896.139927,94.659503 894.769446,94.7801115 L886.522895,95.4992758 C883.766256,95.7375005 881.001929,95.9742273 878.230214,96.2094528 L917.926061,9.34784384 C920.52948,3.6528637 926.215816,0 932.477652,0 L977.921069,0 Z M323.199361,0 C326.513069,0 329.199361,2.6862915 329.199361,6 L329.199361,76.6784239 C329.199361,79.9921324 326.513069,82.6784239 323.199361,82.6784239 C321.360173,82.6784239 319.622581,81.8349016 318.484934,80.3897816 L264.118657,11.3299172 C261.72731,8.29225991 262.251248,3.89118211 265.288905,1.49983485 C266.523064,0.528263125 268.048122,0 269.618823,0 L323.199361,0 Z" id="nova-logo-outlined" fill="#000000"></path>
    </g>
</svg>