<?xml version="1.0" encoding="UTF-8"?>
<svg width="1161px" height="986px" viewBox="0 0 1161 986" version="1.1" xmlns="http://www.w3.org/2000/svg" xmlns:xlink="http://www.w3.org/1999/xlink">
    <title>nova-core-emblem-black</title>
    <g id="nova-core-emblem-black" stroke="none" stroke-width="1" fill="none" fill-rule="evenodd">
        <path d="M578.22469,1 L846.44938,161.923443 L846.44938,486.288185 L578.22469,648.769043 L310,486.288185 L310,161.923443 L578.22469,1 Z M577.509944,535.124425 L523.207521,589.142574 L577.509944,621.801594 L622.475997,595.561075 L577.509944,535.124425 Z M696.159815,496.993131 L592.755152,528.620642 L640.754815,586.100842 L677.692158,562.713215 L696.159815,496.993131 Z M459.465171,464.726003 L434.991211,536.696054 L506.71963,581.694596 L559.647385,522.612309 L459.465171,464.726003 Z M714.103595,493.155432 L700.90719,550.329022 L751.859241,519.27615 L714.103595,493.155432 Z M433.67949,489.100466 L406.850117,519.302547 L419.865804,527.558676 L433.67949,489.100466 Z M430.41643,461.94824 L326.087877,472.220683 L390.618072,511.655577 L430.41643,461.94824 Z M494.824794,312.251589 L581.664405,511.174342 L688.904736,477.914285 L494.824794,312.251589 Z M769.612152,306.793528 L717.959568,476.35687 L773.774735,507.082827 L792.514483,493.659003 L769.612152,306.793528 Z M477.715561,310.880982 L463.010474,444.670473 L557.763055,499.151582 L477.715561,310.880982 Z M827.50861,372.948146 L816.509238,479.380327 L830.345259,473.371993 L827.50861,372.948146 Z M683.146158,291.70061 L501.231111,291.70061 L698.302022,461.562439 L683.146158,291.70061 Z M824.960297,220.510281 L780.063282,272.233933 L805.954551,458.134907 L824.960297,220.510281 Z M327.275736,415.682648 L327.275736,448.4635 L400.192014,441.58407 L327.275736,415.682648 Z M462.486597,295.706842 L326.936638,358.027823 L326.936638,397.147984 L446.230186,438.66417 L462.486597,295.706842 Z M761.526588,278.041245 L697.999473,287.732957 L713.646726,436.280329 L761.526588,278.041245 Z M326.926485,229.99488 L326.926485,337.748935 L445.933729,281.085007 L326.926485,229.99488 Z M744.987933,122.831709 L701.902149,270.970945 L761.059566,259.147177 L744.987933,122.831709 Z M594.911573,179.065165 L498.185318,270.587175 L669.192366,270.587175 L594.911573,179.065165 Z M442.934639,162.266602 L477.006906,264.779863 L571.121901,175.62951 L442.934639,162.266602 Z M425.214216,162.33361 L338.878176,213.921216 L458.141266,264.552444 L425.214216,162.33361 Z M629.192985,57.5481876 L690.259099,253.232248 L729.127475,117.830517 L629.192985,57.5481876 Z M763.321575,136.89921 L773.581835,245.812697 L832.420459,180.878426 L763.321575,136.89921 Z M618.443368,70.3100591 L601.380837,162.863578 L669.972089,242.28973 L618.443368,70.3100591 Z M385.740743,139.906423 L326.877753,174.987863 L326.877753,198.791749 L406.791232,151.912938 L385.740743,139.906423 Z M549.350575,42.8958941 L476.887105,87.3441625 L443.454454,140.919656 L583.185271,156.759809 L549.350575,42.8958941 Z M444.609825,106.059544 L407.851167,125.351595 L424.641607,139.376455 L444.609825,106.059544 Z M577.645989,25.4394408 L563.066795,34.3514303 L590.145923,128.606532 L605.100765,43.8441509 L577.645989,25.4394408 Z" id="core-emblem" fill="#000000"></path>
    </g>
</svg>