<?xml version="1.0" encoding="UTF-8"?>
<svg width="1161px" height="986px" viewBox="0 0 1161 986" version="1.1" xmlns="http://www.w3.org/2000/svg" xmlns:xlink="http://www.w3.org/1999/xlink">
    <title>nova-fronttiers-logo-white</title>
    <g id="nova-fronttiers-logo-white" stroke="none" stroke-width="1" fill="none" fill-rule="evenodd">
        <path d="M174.0953,985 L174.0953,961.1156 L192.0927,961.1156 L192.0927,949.9303 L174.0953,949.9303 L174.0953,937.4835 L198.1479,937.4835 L198.1479,925.9618 L159.7142,925.9618 L159.7142,985 L174.0953,985 Z M268.888,985 L268.888,962.7135 L272.3361,962.7135 L284.6147,985 L300.846,985 L287.2218,961.6202 C291.538933,960.330667 294.804817,958.144067 297.01945,955.0604 C299.234083,951.976733 300.3414,948.472567 300.3414,944.5479 C300.3414,941.071767 299.528433,937.918017 297.9025,935.08665 C296.276567,932.255283 293.82365,930.026633 290.54375,928.4007 C287.26385,926.774767 283.297133,925.9618 278.6436,925.9618 L278.6436,925.9618 L254.5069,925.9618 L254.5069,985 L268.888,985 Z M277.8026,952.5374 L268.888,952.5374 L268.888,937.904 L277.8026,937.904 C280.437733,937.904 282.414083,938.548767 283.73165,939.8383 C285.049217,941.127833 285.708,942.893933 285.708,945.1366 C285.708,947.4914 285.049217,949.313567 283.73165,950.6031 C282.414083,951.892633 280.437733,952.5374 277.8026,952.5374 L277.8026,952.5374 Z M386.0513,985.5887 C391.6019,985.5887 396.675933,984.299167 401.2734,981.7201 C405.870867,979.141033 409.5152,975.53875 412.2064,970.91325 C414.8976,966.28775 416.2432,961.087567 416.2432,955.3127 C416.2432,949.537833 414.911617,944.351667 412.24845,939.7542 C409.585283,935.156733 405.94095,931.568467 401.31545,928.9894 C396.68995,926.410333 391.6019,925.1208 386.0513,925.1208 C380.5007,925.1208 375.41265,926.410333 370.78715,928.9894 C366.16165,931.568467 362.489283,935.156733 359.77005,939.7542 C357.050817,944.351667 355.6912,949.537833 355.6912,955.3127 C355.6912,961.087567 357.050817,966.28775 359.77005,970.91325 C362.489283,975.53875 366.16165,979.141033 370.78715,981.7201 C375.41265,984.299167 380.5007,985.5887 386.0513,985.5887 Z M386.0513,972.4691 C381.285633,972.4691 377.487117,970.91325 374.65575,967.80155 C371.824383,964.68985 370.4087,960.5269 370.4087,955.3127 C370.4087,950.042433 371.824383,945.865467 374.65575,942.7818 C377.487117,939.698133 381.285633,938.1563 386.0513,938.1563 C390.7609,938.1563 394.531383,939.71215 397.36275,942.82385 C400.194117,945.93555 401.6098,950.0985 401.6098,955.3127 C401.6098,960.470833 400.194117,964.619767 397.36275,967.7595 C394.531383,970.899233 390.7609,972.4691 386.0513,972.4691 Z M487.4038,985 L487.4038,948.5847 L511.4564,985 L525.8375,985 L525.8375,925.9618 L511.4564,925.9618 L511.4564,962.5453 L487.4038,925.9618 L473.0227,925.9618 L473.0227,985 L487.4038,985 Z M611.8838,985 L611.8838,937.4835 L627.5264,937.4835 L627.5264,925.9618 L581.8601,925.9618 L581.8601,937.4835 L597.5027,937.4835 L597.5027,985 L611.8838,985 Z M697.9301,985 L697.9301,925.9618 L683.549,925.9618 L683.549,985 L697.9301,985 Z M793.3115,985 L793.3115,973.4783 L771.5296,973.4783 L771.5296,960.5269 L790.7885,960.5269 L790.7885,949.4257 L771.5296,949.4257 L771.5296,937.4835 L793.3115,937.4835 L793.3115,925.9618 L757.1485,925.9618 L757.1485,985 L793.3115,985 Z M865.8177,985 L865.8177,962.7135 L869.2658,962.7135 L881.5444,985 L897.7757,985 L884.1515,961.6202 C888.468633,960.330667 891.734517,958.144067 893.94915,955.0604 C896.163783,951.976733 897.2711,948.472567 897.2711,944.5479 C897.2711,941.071767 896.458133,937.918017 894.8322,935.08665 C893.206267,932.255283 890.75335,930.026633 887.47345,928.4007 C884.19355,926.774767 880.226833,925.9618 875.5733,925.9618 L875.5733,925.9618 L851.4366,925.9618 L851.4366,985 L865.8177,985 Z M874.7323,952.5374 L865.8177,952.5374 L865.8177,937.904 L874.7323,937.904 C877.367433,937.904 879.343783,938.548767 880.66135,939.8383 C881.978917,941.127833 882.6377,942.893933 882.6377,945.1366 C882.6377,947.4914 881.978917,949.313567 880.66135,950.6031 C879.343783,951.892633 877.367433,952.5374 874.7323,952.5374 L874.7323,952.5374 Z M976.4212,985.5887 C980.850467,985.5887 984.691033,984.775733 987.9429,983.1498 C991.194767,981.523867 993.675717,979.337267 995.38575,976.59 C997.095783,973.842733 997.9508,970.7871 997.9508,967.4231 C997.9508,963.8909 997.081767,961.003467 995.3437,958.7608 C993.605633,956.518133 991.545183,954.8081 989.16235,953.6307 C986.779517,952.4533 983.681833,951.219833 979.8693,949.9303 C976.056767,948.696833 973.253433,947.547467 971.4593,946.4822 C969.665167,945.416933 968.7681,943.931167 968.7681,942.0249 C968.7681,940.286833 969.300733,938.95525 970.366,938.03015 C971.431267,937.10505 972.832933,936.6425 974.571,936.6425 C976.5894,936.6425 978.243367,937.18915 979.5329,938.28245 C980.822433,939.37575 981.523267,940.875533 981.6354,942.7818 L981.6354,942.7818 L997.1939,942.7818 C996.913567,937.2312 994.783033,932.90005 990.8023,929.78835 C986.821567,926.67665 981.579333,925.1208 975.0756,925.1208 C968.684,925.1208 963.497833,926.67665 959.5171,929.78835 C955.536367,932.90005 953.546,937.203167 953.546,942.6977 C953.546,946.3981 954.415033,949.397667 956.1531,951.6964 C957.891167,953.995133 959.965633,955.7332 962.3765,956.9106 C964.787367,958.088 967.899067,959.2654 971.7116,960.4428 C974.346733,961.227733 976.37915,961.928567 977.80885,962.5453 C979.23855,963.162033 980.443983,963.946967 981.42515,964.9001 C982.406317,965.853233 982.8969,967.058667 982.8969,968.5164 C982.8969,970.254467 982.280167,971.614083 981.0467,972.59525 C979.813233,973.576417 978.131233,974.067 976.0007,974.067 C973.926233,974.067 972.244233,973.492317 970.9547,972.34295 C969.665167,971.193583 968.908267,969.5256 968.684,967.339 L968.684,967.339 L953.3778,967.339 C953.489933,971.2076 954.569217,974.515533 956.61565,977.2628 C958.662083,980.010067 961.395333,982.084533 964.8154,983.4862 C968.235467,984.887867 972.104067,985.5887 976.4212,985.5887 Z" id="FRONTIERS" fill="#FFFFFF" fill-rule="nonzero"></path>
        <path d="M826.591498,59 C869.118105,59 905.448745,110.498135 883.297448,160.238667 L638.715208,610.370516 C624.903259,636.049163 608.454402,649 578.385903,649 C548.317403,649 532.096741,636.049163 518.284792,610.370516 L273.702552,160.238667 C251.551255,110.498135 287.881895,59 330.408502,59 L826.591498,59 Z M826.272195,74 L330.727805,74 C315.370598,74 300.059362,83.4751715 290.661191,98.874458 C280.716144,115.169823 279.021324,135.166192 287.214741,153.943973 L531.19434,602.10664 C535.836984,610.721427 540.457535,617.243457 545.649124,622.021717 L546.26601,623.33843 L547.776735,623.856258 C555.833912,630.348114 565.363937,633 578.386049,633 C591.773176,633 601.536053,630.186708 609.77368,623.332597 L610.346094,623.164169 L610.588608,622.637022 C616.112775,617.801888 620.966339,611.086377 625.80566,602.10664 L869.785259,153.943973 C877.978676,135.166192 876.283856,115.169823 866.338809,98.874458 C856.940638,83.4751715 841.629402,74 826.272195,74 Z M585.018945,382.332282 L585.018945,393.271083 L585.276629,393.274626 C587.251835,500.871785 599.219728,562.720995 621.180308,578.822258 L612.047156,595.626357 C602.208369,613.916407 594.640822,619 577.385806,619 C560.223899,619 552.8432,614.012276 542.952844,595.626357 L542.952844,595.626357 L533.859763,578.897296 C568.088333,561.080895 571.712503,447.81183 571.512469,393.265893 L575.981055,393.271083 L575.981055,382.332282 C577.509238,383.015813 579.037121,383.357579 580.564703,383.357579 C582.092286,383.357579 583.577033,383.015813 585.018945,382.332282 L585.018945,382.332282 Z M825.800789,87 C835.825037,87 846.575292,93.664961 853.453404,104.955859 C860.894424,117.17081 862.233652,132.024212 856.224626,146.271168 L856.224626,146.271168 L673.581418,482.38959 C621.829898,536.691298 594.911542,506.987548 592.826349,393.278341 L598.068444,393.271083 L602.946484,397 L602.946484,389.042122 L606.092707,391.348954 L606.092707,316.681172 L604.735506,314.941033 L604.735506,309.159796 C613.222168,309.159796 619.734709,307.572986 624.273129,304.399366 C627.160538,317.630495 632.124268,333.044595 639.164319,350.641667 L639.164319,350.641667 L639.164319,357.39571 L637.484822,362.567433 L639.578351,362.52254 L641.111001,357.39571 L641.111001,305.196743 L646.065778,303.070866 L646.065778,300.011552 C650.021926,300.011552 652,298.415533 652,295.223495 C652,292.031458 650.021926,290.43659 646.065778,290.438892 L646.065778,290.438892 L646.065778,287.580908 L641.970805,285.709197 L641.970805,280.536438 L639.578351,280.536438 L639.578351,269.891171 L626.542107,274.735517 L626.542107,288.184206 C620.267334,285.085869 614.010584,282.8694 607.771855,281.534799 L607.771855,281.534799 L609.856314,273.467105 L603.263199,168.7487 C600.899928,154.541657 599.39681,146.712704 598.753846,145.261841 C597.826275,143.168755 595.294531,140.580361 591.158614,137.496659 C589.391799,133.025274 587.658819,128.65323 585.959673,124.380527 C585.892034,124.210441 584.093711,123.945691 580.564703,124.009811 C577.035696,124.073931 575.107966,124.210441 575.040327,124.380527 C573.341181,128.65323 571.608201,133.025274 569.841386,137.496659 C565.705469,140.580361 563.173725,143.168755 562.246154,145.261841 C561.60319,146.712704 560.100072,154.541657 557.736801,168.7487 L557.736801,168.7487 L551.143686,273.467105 L553.228145,281.534799 C546.989416,282.8694 540.732666,285.085869 534.457893,288.184206 L534.457893,288.184206 L534.457893,274.735517 L521.421649,269.891171 L521.421649,280.536438 L519.029195,280.536438 L519.029195,285.709197 L514.934222,287.580908 L514.934222,290.438892 C510.978074,290.43659 509,292.031458 509,295.223495 C509,298.415533 510.978074,300.011552 514.934222,300.011552 L514.934222,300.011552 L514.934222,303.070866 L519.888999,305.196743 L519.888999,357.39571 L521.421649,362.52254 L523.515178,362.567433 L521.835681,357.39571 L521.835681,350.641667 C528.875732,333.044595 533.839462,317.630495 536.726871,304.399366 C541.265291,307.572986 547.777832,309.159796 556.264494,309.159796 L556.264494,309.159796 L556.264494,314.941033 L554.907293,316.681172 L554.907293,391.348954 L558.053516,389.042122 L558.053516,397 L562.16259,393.868546 C559.995118,507.090212 533.080449,536.597227 481.418582,482.38959 L298.775374,146.271168 C292.766348,132.024212 294.105576,117.17081 301.546596,104.955859 C308.424708,93.664961 319.174963,87 329.199211,87 L329.199211,87 Z M457.5,272 C457.5,292.710678 441.158393,309.5 421,309.5 C441.158393,309.5 457.5,326.289322 457.5,347 C457.5,326.289322 473.841607,309.5 494,309.5 C473.841607,309.5 457.5,292.710678 457.5,272 Z M704.5,266 C704.5,279.807119 693.530976,291 680,291 C693.530976,291 704.5,302.192881 704.5,316 C704.5,302.192881 715.469024,291 729,291 C715.469024,291 704.5,279.807119 704.5,266 Z M783,192 C783,199.731986 776.731986,206 769,206 C776.731986,206 783,212.268014 783,220 C783,212.268014 789.268014,206 797,206 C789.268014,206 783,199.731986 783,192 Z M697.5,129 C697.5,152.472102 678.472102,171.5 655,171.5 C678.472102,171.5 697.5,190.527898 697.5,214 C697.5,190.527898 716.527898,171.5 740,171.5 C716.527898,171.5 697.5,152.472102 697.5,129 Z M392,114 C392,138.300529 372.300529,158 348,158 C372.300529,158 392,177.699471 392,202 C392,177.699471 411.699471,158 436,158 C411.699471,158 392,138.300529 392,114 Z M493,173 C493,180.731986 486.731986,187 479,187 C486.731986,187 493,193.268014 493,201 C493,193.268014 499.268014,187 507,187 C499.268014,187 493,180.731986 493,173 Z" id="frontiers-emblem" fill="#FFFFFF"></path>
        <g id="nova-logo-white-outlined" transform="translate(67.000000, 690.000000)" fill="#FFFFFF">
            <path d="M885.297263,41.7062818 C963.189463,46.4262828 1010.6861,55.4452043 1011.3512,68.0040315 C1011.96794,79.9041601 970.435712,93.0392293 900.592442,105.304791 L930.794338,171.381685 C932.378936,174.847993 930.853509,178.942561 927.387201,180.527158 C926.486702,180.938815 925.508164,181.151877 924.518033,181.151877 L801.938449,181.151877 C798.127119,181.151877 795.037425,178.062183 795.037425,174.250853 C795.037425,173.261918 795.249973,172.284533 795.66067,171.384911 L807.01444,146.514748 C808.417121,143.442209 811.483944,141.470953 814.861517,141.470896 L860.18706,141.470127 L847.491542,113.688002 L845.427716,113.981737 L845.427716,113.981737 L841.268819,114.567476 L841.268819,114.567476 L837.068586,115.150858 L837.068586,115.150858 L832.827401,115.731824 L832.827401,115.731824 L828.545652,116.310315 L828.545652,116.310315 L824.223723,116.886274 L824.223723,116.886274 L819.862001,117.459641 C819.131753,117.554982 818.399863,117.650214 817.666338,117.745334 L813.24565,118.314703 L813.24565,118.314703 L808.786132,118.881333 C808.039665,118.97554 807.291596,119.069631 806.541934,119.163603 L802.024897,119.726016 L802.024897,119.726016 L797.469996,120.285545 L797.469996,120.285545 L772.400843,175.104106 C770.716504,178.788586 767.037613,181.151877 762.986392,181.151877 L720.7597,181.151877 C717.901202,181.151877 715.583932,178.834607 715.583932,175.976109 C715.583932,175.233511 715.743729,174.499607 716.052471,173.824233 L737.458754,127.016172 L731.474144,127.628072 L731.474144,127.628072 L725.443991,128.234671 C724.435206,128.335323 723.424551,128.435751 722.412039,128.535951 L716.314789,129.134414 C713.255129,129.432267 710.179,129.728039 707.086766,130.021675 L700.880933,130.606084 C699.843085,130.703005 698.803474,130.799685 697.762115,130.896121 L691.49308,131.471802 C690.444779,131.567256 689.394757,131.662462 688.343026,131.757419 L682.01225,132.324149 C680.95374,132.418099 679.893549,132.511796 678.831691,132.605236 L660.31814,173.088165 C658.072358,178.000815 653.167165,181.151877 647.76553,181.151877 L608.564767,181.151877 C603.163132,181.151877 598.257939,178.000815 596.012157,173.088165 L580.956309,140.147014 C557.237222,141.728642 532.97676,143.175296 508.294096,144.468859 C499.078871,144.951809 489.919943,145.407385 480.823579,145.835876 C464.266845,167.315005 438.27813,181.151877 409.05764,181.151877 C381.97907,181.151877 357.675849,169.269198 341.077908,150.433771 L335.063547,150.53647 L335.063547,150.53647 L329.083977,150.630107 C328.090312,150.644959 327.098119,150.659435 326.107411,150.673535 L320.181055,150.753623 C318.211599,150.778817 316.24817,150.802511 314.290859,150.824707 L308.43737,150.886812 C307.464878,150.896416 306.493938,150.905647 305.524562,150.914504 L299.727161,150.963183 C298.764085,150.970552 297.802595,150.97755 296.842704,150.984176 L291.10262,151.019481 L291.10262,151.019481 L285.401433,151.045901 C283.507581,151.053229 281.620302,151.05908 279.739689,151.063458 L274.117936,151.072175 L274.117936,151.072175 L268.536721,151.072077 L268.536721,151.072077 L282.344783,168.58091 C284.99979,171.947765 284.422724,176.829448 281.055869,179.484455 C279.686237,180.564508 277.992804,181.151877 276.248554,181.151877 L225.154594,181.151877 C220.902568,181.151877 216.88788,179.192028 214.272437,175.83954 L194.212209,150.139831 L189.946829,150.026682 L189.946829,150.026682 L185.71873,149.907166 L185.71873,149.907166 L181.528271,149.7813 C180.833018,149.759794 180.139347,149.738024 179.447268,149.715991 L175.31394,149.58063 L175.31394,149.58063 L169.186316,149.365764 L169.186316,149.365764 L165.150001,149.214661 L165.150001,149.214661 L161.153118,149.057291 L161.153118,149.057291 L157.196026,148.893669 C156.539847,148.865879 155.88534,148.837829 155.232514,148.80952 L151.335782,148.636552 C150.689707,148.607206 150.045328,148.577602 149.402651,148.547739 L149.406616,175.976109 C149.406616,178.834607 147.089346,181.151877 144.230848,181.151877 L97.6489368,181.151877 C94.7904391,181.151877 92.4731688,178.834607 92.4731688,175.976109 L92.4613843,144.835106 C91.3063765,144.733163 90.1608103,144.630019 89.0247654,144.52568 L85.6452748,144.209077 C85.0868136,144.155714 84.5307528,144.102051 83.9771023,144.048092 L80.6842025,143.720766 C30.0950481,138.591961 0.525280373,130.896777 0,121.005976 C-0.346717474,114.258067 12.8544486,107.113074 37.0861251,99.9546977 L38.9718141,99.4040335 C40.2433877,99.036915 41.5437996,98.6697872 42.8727094,98.3027018 L44.887405,97.7521121 C46.5840583,97.2933245 48.3249736,96.8346437 50.109486,96.3761707 L52.271785,95.8261093 C52.9994985,95.6427931 53.734145,95.4595165 54.4756819,95.2762862 L56.7209213,94.7267401 L56.7209213,94.7267401 L59.007248,94.17751 C59.3917122,94.0860001 59.7778778,93.994505 60.1657393,93.9030255 L59.2812869,94.2070817 L59.2812869,94.2070817 L58.4185733,94.5107518 L58.4185733,94.5107518 L57.5776846,94.8140242 L57.5776846,94.8140242 L56.758707,95.1168873 L56.758707,95.1168873 L55.9617268,95.4193293 L55.9617268,95.4193293 L55.1868302,95.7213388 L55.1868302,95.7213388 L54.4341033,96.0229039 C54.3105011,96.0731271 54.1878263,96.1233313 54.0660805,96.1735162 L53.34677,96.4743931 C53.2287479,96.5245001 53.1116586,96.5745874 52.9955038,96.6246547 L52.3098035,96.9248171 C52.1973939,96.9748035 52.0859225,97.0247695 51.9753909,97.0747149 L51.3234948,97.3741365 L51.3234948,97.3741365 L50.6942426,97.6730497 C50.5912591,97.7228256 50.4892226,97.7725798 50.3881349,97.8223121 L49.7930102,98.1204409 L49.7930102,98.1204409 L49.220745,98.4180323 L49.220745,98.4180323 L48.6714253,98.7150744 L48.6714253,98.7150744 L48.1451375,99.0115558 C48.0593469,99.060922 47.9745197,99.1102643 47.8906574,99.1595826 L47.399079,99.4552009 C47.2390893,99.5536426 47.0829741,99.6519861 46.9307479,99.7502293 L46.4857503,100.044656 C46.4135333,100.093676 46.3422921,100.142671 46.2720285,100.19164 L45.8621929,100.485143 C43.606432,102.146548 42.4849507,103.777574 42.5683371,105.36868 C43.6529531,126.064387 248.172523,132.169235 499.375582,119.004241 C750.578642,105.839246 953.339702,78.3897243 952.255086,57.6940178 C951.989572,52.6277088 939.532803,48.4357868 917.184346,45.186893 L915.299126,44.9183363 C914.66312,44.829546 914.019531,44.7414848 913.368407,44.6541543 L911.392485,44.3943557 C911.059414,44.3514218 910.724472,44.3086708 910.387665,44.2661031 L908.344493,44.0128964 L908.344493,44.0128964 L906.256856,43.7640953 L906.256856,43.7640953 L904.12505,43.5197087 L904.12505,43.5197087 L901.949373,43.2797453 L901.949373,43.2797453 L899.730118,43.0442139 L899.730118,43.0442139 L897.467582,42.8131235 L897.467582,42.8131235 L895.162061,42.5864828 C894.774241,42.5490807 894.384643,42.5118643 893.993273,42.4748339 L891.623828,42.2548843 L891.623828,42.2548843 L889.212136,42.0394066 L889.212136,42.0394066 L886.758495,41.8284095 L886.758495,41.8284095 L885.297263,41.7062818 Z M143.550034,0 C147.248452,0 150.742968,1.69464866 153.033058,4.59874609 L232.63295,105.563022 L226.224202,105.549706 L226.224202,105.549706 L221.48014,105.532346 L221.48014,105.532346 L213.695084,105.48934 L213.695084,105.48934 L206.065789,105.428698 L206.065789,105.428698 L200.077304,105.367456 L200.077304,105.367456 L195.654398,105.314083 L195.654398,105.314083 L189.850179,105.232977 L189.850179,105.232977 L186.988523,105.188156 L186.988523,105.188156 L182.747356,105.115582 L182.747356,105.115582 L177.189664,105.008827 L177.189664,105.008827 L171.74501,104.890631 L171.74501,104.890631 L167.736987,104.794463 L167.736987,104.794463 L165.101409,104.726762 L165.101409,104.726762 L161.203366,104.619823 L161.203366,104.619823 L158.641942,104.544932 L158.641942,104.544932 L149.406616,92.6941789 L149.384506,104.241176 L145.283683,104.088568 L145.283683,104.088568 L142.2682,103.968586 L142.2682,103.968586 L138.328793,103.801232 L138.328793,103.801232 L135.435891,103.670175 L135.435891,103.670175 L132.596453,103.534359 L132.596453,103.534359 L129.811038,103.39378 L129.811038,103.39378 L126.18215,103.198918 L126.18215,103.198918 L123.524956,103.047197 L123.524956,103.047197 L120.069056,102.837458 L120.069056,102.837458 L117.543122,102.67456 L117.543122,102.67456 L115.890901,102.563296 L115.890901,102.563296 L113.460584,102.392394 L113.460584,102.392394 L111.872623,102.275787 L111.872623,102.275787 L108.774849,102.036151 L108.774849,102.036151 L106.520547,101.850796 L106.520547,101.850796 L105.05086,101.724544 L105.05086,101.724544 L103.607911,101.596142 L103.607911,101.596142 L101.493981,101.399506 L101.493981,101.399506 L100.118599,101.265724 L100.118599,101.265724 L98.7705324,101.129787 L98.7705324,101.129787 L97.4499476,100.991692 L97.4499476,100.991692 L95.5209598,100.7805 L95.5209598,100.7805 L94.2698019,100.637004 L94.2698019,100.637004 L92.4457292,100.417701 L92.4457292,100.417701 L92.4731688,5.17576792 C92.4731688,2.31727023 94.7904391,0 97.6489368,0 L143.550034,0 Z M409.05764,0 C459.081349,0 499.633578,40.552229 499.633578,90.5759386 C499.633578,93.4826103 499.496662,96.3573036 499.228927,99.1939209 C484.79725,99.8263339 470.452671,100.412247 456.239722,100.95188 L456.248348,100.94932 C456.979516,97.607792 457.364807,94.13686 457.364807,90.5759386 C457.364807,63.8966268 435.736952,42.2687713 409.05764,42.2687713 C382.378328,42.2687713 360.750473,63.8966268 360.750473,90.5759386 C360.750473,95.1938506 361.398444,99.6604209 362.608424,103.889688 L355.865601,104.052101 L355.865601,104.052101 L349.165991,104.206198 L349.165991,104.206198 L342.51086,104.351998 L342.51086,104.351998 L335.901474,104.48952 L335.901474,104.48952 L329.339098,104.618785 L329.339098,104.618785 L322.824998,104.739813 C321.743408,104.759299 320.663882,104.778442 319.586447,104.797244 C318.861047,100.16379 318.481701,95.4141645 318.481701,90.5759386 C318.481701,40.552229 359.03393,0 409.05764,0 Z M567.169819,0 C571.22105,0 574.899948,2.36330277 576.584282,6.04779669 L616.390116,93.123231 C597.929636,94.2332825 579.392586,95.2718923 560.878674,96.2379122 L520.235918,7.32764395 C519.04747,4.72791326 520.19154,1.65698742 522.791271,0.468539105 C523.466645,0.159796593 524.200549,0 524.943147,0 L567.169819,0 Z M731.38715,0 C734.245647,0 736.562918,2.31727023 736.562918,5.17576792 C736.562918,5.91836627 736.403121,6.6522697 736.094379,7.32764395 L699.406745,87.5910198 C680.03658,89.0156667 660.402834,90.3595929 640.629766,91.6213678 L679.746014,6.04779669 C681.430348,2.36330277 685.109247,0 689.160478,0 L731.38715,0 Z M843.582083,0 C848.983718,0 853.888911,3.15106246 856.134693,8.0637117 L884.524712,70.1259559 L882.046079,70.4268025 L882.046079,70.4268025 L877.056631,71.0249119 C876.221513,71.1241982 875.384636,71.223285 874.546016,71.3221723 L869.493506,71.9130988 L869.493506,71.9130988 L864.399957,72.4992251 C863.547656,72.5965123 862.693679,72.6935991 861.838043,72.7904853 L856.684436,73.3693942 L856.684436,73.3693942 L851.491794,73.9434799 C850.623145,74.0387584 849.752903,74.1338355 848.881084,74.2287111 L843.63139,74.7955447 C841.875275,74.983682 840.112987,75.1710116 838.344662,75.357532 L833.021702,75.9146639 C832.131567,76.007114 831.239956,76.0993615 830.346885,76.1914061 L823.981701,62.2713891 L817.014789,77.5398305 L813.612574,77.8759472 L813.612574,77.8759472 L806.770319,78.542458 C805.625805,78.6529066 804.479244,78.7630365 803.330668,78.8728476 L796.415295,79.527884 L796.415295,79.527884 L789.453123,80.1752484 L789.453123,80.1752484 L782.445709,80.8149229 L782.445709,80.8149229 L775.39461,81.4468895 C774.215873,81.551574 773.035381,81.6559365 771.853166,81.7599768 L764.73946,82.380348 C762.361506,82.5858473 759.97692,82.7900544 757.585961,82.9929665 L791.82871,8.0637117 C794.074492,3.15106246 798.979685,0 804.38132,0 L843.582083,0 Z M278.800814,0 C281.659312,0 283.976582,2.31727023 283.976582,5.17576792 L283.976582,66.1449544 C283.976582,69.0034521 281.659312,71.3207224 278.800814,71.3207224 C277.214279,71.3207224 275.715384,70.5930763 274.734017,69.3464754 L227.836146,9.7735037 C225.773303,7.15313547 226.225266,3.35664259 228.845634,1.29379952 C229.910254,0.455694556 231.225812,0 232.580742,0 L278.800814,0 Z" id="nova-logo-outlined"></path>
        </g>
    </g>
</svg>