<?xml version="1.0" encoding="UTF-8"?>
<svg width="1161px" height="986px" viewBox="0 0 1161 986" version="1.1" xmlns="http://www.w3.org/2000/svg" xmlns:xlink="http://www.w3.org/1999/xlink">
    <title>nova-relief-emblem-black</title>
    <g id="nova-relief-emblem-black" stroke="none" stroke-width="1" fill="none" fill-rule="evenodd">
        <path d="M672.613199,26 L672.612922,65.5009574 C662.579361,69.7907714 652.251194,74.8421208 648.121895,78.5905767 C642.1092,84.0487248 611.249372,128.098413 600.884627,145.408807 C597.47298,151.106674 593.442713,160.091154 588.793823,172.362246 L588.793823,172.362246 L576.40778,183.907641 L572.892705,176.395451 C576.829324,161.299271 579.029039,152.779135 579.49185,150.835043 C580.018661,148.622112 582.976606,146.880298 583.379943,144.831025 C583.73385,143.032895 583.212037,140.728056 581.814504,137.916509 L581.814504,137.916509 L566.934811,139.929245 L567.797515,132.262853 C567.589333,131.176437 564.227683,128.43626 561.560989,129.232523 C554.89791,131.222089 550.20315,132.67271 547.028274,134.443512 C547.000786,134.458843 546.97245,134.47497 546.943266,134.491892 L546.757989,134.602965 C544.347418,136.090541 537.29395,141.932244 525.597586,152.128072 L525.597586,152.128072 L527.334169,153.989559 L534.273306,154.668174 C526.857166,160.066016 522.37626,164.514399 520.830589,168.013323 C518.607422,173.045886 515.692436,179.834909 512.085632,188.380391 C506.151256,194.573845 501.764167,199.554975 498.924365,203.323781 C497.479943,205.633054 495.659266,208.072332 493.462334,210.641615 L493.462334,210.641615 L495.367886,212.684224 L499.861039,211.390859 L516.751757,197.411041 L525.521674,194.728865 L532.711204,188.776989 L520.637013,204.197025 L547.281973,186.278364 L547.994888,208.254868 L531.74392,226.600633 L550.506299,213.288546 L553.488932,233.596152 L548.635062,238.120588 L546.403162,251.49895 C553.568333,263.289002 562.338833,272.690321 572.71466,279.702908 C583.090487,286.715494 587.592815,286.284723 586.221644,278.410593 L586.221644,278.410593 L591.075515,273.886157 L611.133977,278.276881 L596.540026,296.057211 L615.982283,281.13227 L637.864594,283.376158 L618.123527,308.695276 L634.354619,297.731127 L627.913269,304.484995 L624.624761,313.042832 L609.49499,328.910253 L607.890814,333.300387 L609.796367,335.342996 C612.513701,333.331546 615.075048,331.68621 617.480407,330.406989 C621.439683,327.838176 626.716763,323.81105 633.311647,318.325611 C642.091438,315.325183 649.070064,312.89208 654.247526,311.0263 C657.847191,309.729104 662.599146,305.571265 668.503391,298.552784 L668.503391,298.552784 L668.696583,305.519493 L670.433166,307.38098 C670.878751,306.936987 671.316662,306.500104 671.746899,306.070331 L673.014589,304.802341 C682.833631,294.967577 688.354394,289.115114 689.576877,287.244951 C691.565564,284.202643 693.34074,279.622446 695.791074,273.117133 C696.771745,270.513579 694.271608,266.97036 693.201913,266.686986 L693.201913,266.686986 L685.490852,267.012453 L688.537471,252.315546 C685.829099,250.72587 683.565323,250.044766 681.746144,250.272234 C680.758876,250.395681 679.800778,251.101617 678.825502,251.847353 L678.237905,252.295228 C677.352305,252.961181 676.445283,253.571456 675.483054,253.730432 C673.51061,254.056312 664.854268,255.655427 649.514026,258.527776 L649.514026,258.527776 L642.262235,254.49869 L654.648278,242.953295 C661.675255,240.840454 667.663811,238.848732 672.613945,236.978127 L672.612922,65.5009574 C683.370163,60.9017365 693.788769,57.1778653 695.866443,56.8734621 C698.543494,56.4812434 701.076887,56.6417055 703.466622,57.3548486 L707.47125,46.978176 L736.027893,30.8108108 L746.03726,33.0512004 L748.489277,35.6795786 L779.195462,36.8830617 C779.84356,37.1051609 780.439651,37.3006241 781.014823,37.505098 L781.326665,37.6177371 C784.324697,38.7193624 786.898273,40.2516903 793.604444,47.4402033 C800.426238,54.7526563 801.705268,57.3926861 802.596246,60.5271685 L802.685717,60.8478352 C802.700473,60.9016309 802.715168,60.9556188 802.729826,61.0098243 L802.817543,61.3378688 C802.919841,61.7241022 803.022826,62.1234593 803.135106,62.5445693 L802.194199,93.2472385 L804.646216,95.8756166 L806.183854,106.012754 L788.057188,133.360274 L777.422161,136.629655 C777.967162,139.062329 777.950579,141.599698 777.372412,144.241764 C776.505162,148.204862 760.717168,182.345165 752.368744,190.335401 C749.142153,193.423556 733.740932,203.192225 717.538738,212.877298 L715.768595,213.933195 C703.06764,221.493415 690.129899,228.852194 682.390595,232.777109 C679.777986,234.102069 676.519103,235.502408 672.613945,236.978127 L672.613199,243.689189 L890.392459,243.689189 L890.392459,431.310811 L672.613199,431.310811 L672.613199,649 L484.913949,649 L484.917596,575.526288 C630.2058,444.068893 704.875269,376.322725 708.926003,372.287785 C715.375955,365.862982 717.421975,357.484362 713.495918,353.573613 C709.56986,349.662863 701.158443,351.700906 694.708492,358.125709 C690.673564,362.144904 620.742912,433.535755 484.916535,572.298262 L484.917596,575.526288 C475.978318,583.614586 466.771699,591.944074 457.29774,600.514753 C466.788325,590.818568 475.99459,581.413071 484.916535,572.298262 L484.913949,431.310811 L404.670583,431.30723 C477.718583,365.259088 515.845354,330.642251 519.050897,327.456721 C527.219023,319.339588 529.810074,308.75399 524.838171,303.813126 C519.866268,298.872263 509.21417,301.447138 501.046043,309.564271 C497.666951,312.922268 457.793999,353.503717 381.427186,431.308621 L404.670583,431.30723 C353.628249,477.45841 285.535541,538.956001 200.392459,615.800003 C274.383736,540.383686 334.728646,478.886558 381.427186,431.308621 L267.13469,431.310811 L267.13469,243.689189 L484.913949,243.689189 L484.913949,26 L672.613199,26 Z M813.23381,257.463761 L813.130028,257.469487 C811.755015,257.705012 806.049733,259.393798 802.557142,260.665025 C798.047449,262.306455 794.560018,264.250184 791.787345,265.832132 L791.08005,266.236171 C790.273318,266.696956 789.530314,267.118882 788.842372,267.483227 C785.272556,269.373855 773.748437,269.099282 769.925575,269.833989 C768.388324,270.129429 762.483227,271.594452 756.355712,273.155198 L755.411822,273.395923 L755.411822,273.395923 L754.467776,273.637289 C748.02391,275.286841 741.804129,276.920459 740.624885,277.290459 C739.065933,277.779597 733.114651,283.471834 731.760258,286.918 C731.206194,288.32778 731.49109,290.555218 734.462222,294.714756 C734.599452,294.906875 736.204711,298.413481 737.943256,302.265987 L738.27047,302.991661 L738.27047,302.991661 L738.598852,303.721093 C740.56874,308.100265 742.496158,312.447577 742.480662,312.536273 C742.428666,312.833881 742.45443,313.079755 742.557954,313.273897 L742.557954,313.273897 L742.06976,313.73003 L742.04677,314.189132 L741.392473,314.80046 L741.312562,319.979422 C743.220608,322.146979 745.438468,324.594143 745.445777,324.601974 C746.906825,326.171802 747.734821,326.99729 749.759804,329.05559 L749.759804,329.05559 L754.9217,329.336985 L755.575997,328.725657 L756.034695,328.734703 L756.522889,328.27857 C756.708961,328.395586 756.951963,328.438488 757.251897,328.407278 C757.264312,328.405986 757.355903,328.447885 757.51575,328.527096 L757.73963,328.639682 C760.504793,330.045238 774.067077,337.359071 774.436169,337.664901 C778.370268,340.924713 780.568096,341.364846 782.010363,340.909398 C785.535941,339.796069 791.618435,334.244814 792.214181,332.720757 C792.642841,331.624145 794.527992,326.048782 796.511297,320.06313 L796.817012,319.139572 C796.919053,318.831007 797.021169,318.52191 797.123177,318.212833 L797.428692,317.286203 C799.410049,311.270604 801.280587,305.470634 801.681969,303.954756 C802.680132,300.185043 803.210642,288.647494 805.342023,285.211334 C807.219694,282.1842 810.375691,278.090924 813.087113,271.978989 C814.596414,268.576809 816.675797,262.992164 817.006209,261.634263 C817.142136,261.075645 816.197359,259.370183 815.763664,258.902008 C815.329968,258.433832 813.695686,257.372595 813.130028,257.469487 Z" id="red-cross-logo-copy" fill="#000000" fill-rule="nonzero"></path>
    </g>
</svg>