<?xml version="1.0" encoding="UTF-8"?>
<svg width="408px" height="210px" viewBox="0 0 408 210" version="1.1" xmlns="http://www.w3.org/2000/svg" xmlns:xlink="http://www.w3.org/1999/xlink">
    <title>nova-emblem-white-outlined</title>
    <g id="nova-emblem-white-outlined" stroke="none" stroke-width="1" fill="none" fill-rule="evenodd">
        <path d="M348.874349,78.1990828 C349.594665,78.318945 350.309565,78.4402364 351.018983,78.5629463 L353.130727,78.935321 C353.479921,78.9980892 353.827728,79.0612093 354.17414,79.1246801 L356.235799,79.5097018 C356.576596,79.5745698 356.915981,79.6397858 357.253945,79.7053484 L359.264621,80.1028735 C389.1671,86.1278281 407.429867,94.9391196 407.986869,105.567353 C408.982231,124.559986 353.141602,143.688338 274.310386,153.835 L307.108341,195.427128 C310.186153,199.330149 309.517189,204.989231 305.614169,208.067043 C304.026426,209.319093 302.063316,210 300.041297,210 L240.810712,210 C235.881559,210 231.227538,207.728049 228.195591,203.841682 L194.343093,160.451796 C180.139251,161.019868 166.308301,161.256984 152.998065,161.186767 L153,204 C153,207.313708 150.313708,210 147,210 L93,210 C89.6862915,210 87,207.313708 87,204 L86.9969151,157.953136 C35.033291,152.730991 0.779125178,141.550802 0.013096549,126.934105 C-0.529933146,116.572482 15.8434672,106.170463 43.6375392,97.208519 L45.6421788,96.5708492 C45.9794979,96.4649857 46.3184169,96.3593314 46.6589267,96.2538886 L48.7210005,95.6237909 C52.5361939,94.47334 56.5416252,93.3490955 60.7249529,92.2543819 L59.7007678,92.6461604 L59.7007678,92.6461604 L58.6971563,93.0395096 L58.6971563,93.0395096 L57.7142821,93.4343886 L57.7142821,93.4343886 L56.7523091,93.8307565 L56.7523091,93.8307565 L55.8114009,94.2285723 L55.8114009,94.2285723 L54.8917213,94.6277952 C54.7402195,94.6944473 54.589609,94.7611564 54.4398934,94.8279215 L53.5523637,95.2291781 L53.5523637,95.2291781 L52.6864721,95.6317395 L52.6864721,95.6317395 L51.8423822,96.0355647 C51.7035264,96.1029719 51.5655859,96.1704301 51.4285641,96.2379384 L50.6174839,96.6435826 C50.4841502,96.7112878 50.351742,96.7790415 50.2202627,96.8468427 L49.4425606,97.2542137 L49.4425606,97.2542137 L48.6873153,97.6626848 L48.6873153,97.6626848 L47.9546905,98.0722151 C47.7142705,98.2088972 47.4776479,98.345749 47.24485,98.4827636 L46.5579575,98.8942895 L46.5579575,98.8942895 L45.8941768,99.3067517 L45.8941768,99.3067517 L45.2536717,99.7201094 L45.2536717,99.7201094 L44.6366059,100.134322 C39.6933915,103.520433 37.1114669,106.987941 37.2922003,110.436539 C38.2330189,128.388427 113.681953,139.029775 205.810713,134.204729 C297.939474,129.379682 371.860774,110.915388 370.919955,92.9635006 C370.740842,89.5458248 367.861224,86.3931154 362.680127,83.5616496 L362.006239,83.2019353 L362.006239,83.2019353 L361.307531,82.8457373 C361.070512,82.7275935 360.829387,82.6100401 360.584186,82.4930814 L359.836391,82.1439938 C359.583071,82.0282289 359.325707,81.913063 359.064329,81.7985005 L358.268184,81.4566275 L358.268184,81.4566275 L357.448141,81.1184008 C357.170831,81.0062692 356.889569,80.8947496 356.604385,80.7838464 L355.7371,80.4529903 L355.7371,80.4529903 L354.846471,80.1258587 C354.696098,80.0716485 354.544759,80.0175947 354.39246,79.9636976 L353.46716,79.6422012 C353.311031,79.5889336 353.153949,79.5358238 352.995917,79.4828725 L352.036362,79.16707 C351.874547,79.1147545 351.71179,79.0625986 351.548095,79.0106028 L350.554699,78.7005527 C350.387267,78.6491992 350.218904,78.5980069 350.049615,78.5469763 L348.874349,78.1990828 Z M146.210768,0 C150.498152,0 154.549164,1.96451852 157.203947,5.33108845 L241.020275,111.626495 L237.536025,111.826222 L237.536025,111.826222 L234.08172,112.014984 C233.508498,112.045531 232.936524,112.075621 232.365797,112.105254 L228.956409,112.277572 L228.956409,112.277572 L225.576965,112.438925 L225.576965,112.438925 L222.227466,112.589315 L222.227466,112.589315 L218.907911,112.728742 L218.907911,112.728742 L215.618301,112.857204 L215.618301,112.857204 L212.358635,112.974703 L212.358635,112.974703 L209.128914,113.081239 L209.128914,113.081239 L205.929137,113.176811 L205.929137,113.176811 L202.759304,113.261419 L202.759304,113.261419 L199.619417,113.335063 L199.619417,113.335063 L196.509473,113.397744 L196.509473,113.397744 L193.429474,113.449461 C192.407799,113.464873 191.391114,113.478458 190.37942,113.490215 L187.35931,113.520005 L187.35931,113.520005 L184.369145,113.538831 C183.873279,113.541055 183.378661,113.542822 182.885291,113.544133 L179.940043,113.546514 C179.451663,113.546514 178.964531,113.545023 178.478647,113.543593 L175.578315,113.529528 C174.616529,113.523013 173.659733,113.51467 172.707928,113.5045 L169.867485,113.468508 C168.925661,113.454683 167.988829,113.439031 167.056986,113.421552 L164.276432,113.363633 C163.815502,113.353066 163.35582,113.342042 162.897385,113.330562 L160.161747,113.256197 L160.161747,113.256197 L157.456055,113.170869 L157.456055,113.170869 L153,107.455566 L152.996328,113.003598 C152.111789,112.967035 151.232291,112.928626 150.357832,112.888372 L147.749576,112.762075 L147.749576,112.762075 L145.171559,112.624706 L145.171559,112.624706 L142.623783,112.476265 L142.623783,112.476265 L140.106247,112.316752 L140.106247,112.316752 L137.61895,112.146168 L137.61895,112.146168 L135.161893,111.964511 C134.754904,111.933313 134.349174,111.901653 133.944705,111.869531 L131.533008,111.671267 L131.533008,111.671267 L129.151551,111.461931 C128.757162,111.426119 128.364032,111.389846 127.972163,111.353111 L125.636065,111.127168 C124.088747,110.972848 122.561589,110.811147 121.054591,110.642065 L118.809214,110.382906 C118.437504,110.33879 118.067054,110.294213 117.697865,110.249175 L115.497847,109.973408 C104.937509,108.613779 95.4368268,106.866175 86.9958013,104.730597 L87,6 C87,2.6862915 89.6862915,0 93,0 L146.210768,0 Z M303,0 C306.313708,0 309,2.6862915 309,6 L309,76.6784239 C309,79.9921324 306.313708,82.6784239 303,82.6784239 C301.160812,82.6784239 299.42322,81.8349016 298.285573,80.3897816 L243.919297,11.3299172 C241.527949,8.29225991 242.051887,3.89118211 245.089544,1.49983485 C246.323703,0.528263125 247.848761,0 249.419462,0 L303,0 Z" id="nova-emblem-outlined" fill="#FFFFFF"></path>
    </g>
</svg>