<?xml version="1.0" encoding="UTF-8"?>
<svg width="1161px" height="986px" viewBox="0 0 1161 986" version="1.1" xmlns="http://www.w3.org/2000/svg" xmlns:xlink="http://www.w3.org/1999/xlink">
    <title>nova-skyline-emblem-black</title>
    <g id="nova-skyline-emblem-black" stroke="none" stroke-width="1" fill="none" fill-rule="evenodd">
        <path d="M579.5,17 C752.088984,17 892,157.134873 892,330 C892,502.865127 752.088984,643 579.5,643 C434.266585,643 312.173098,543.767673 277.117806,409.303522 C347.68881,399.888907 426.981579,381.788196 515,355 L515,355 L502.892608,355.002096 C344.567821,380.692787 65.7286805,377.788723 253.937154,216 C257.489617,240.923591 263.647654,259.509246 272.411264,271.756965 L272.401121,271.752949 C299.652899,126.721575 426.783495,17 579.5,17 Z M589.669955,169 L580.637513,171.337182 C580.977534,187.266873 559.397336,250.712432 552.770823,268.770275 C548.86612,279.410942 545.486447,289.968558 542.631805,300.443122 C535.50282,302.083141 531.651116,305.707756 531.076691,311.316968 L531.076691,311.316968 L527.518381,312.617945 L526,315.614507 L529.130146,324.253411 L533.810453,325.705158 C532.42983,334.450702 533.051954,338.722609 535.004644,344.111847 C536.957334,349.501085 539.214323,353.175257 545.868157,358.983271 L545.868157,358.983271 L543.211796,363.117426 L546.341942,371.75633 L549.422569,373.071418 L552.980879,371.770441 C557.01021,375.696443 562.280154,375.986033 568.79071,372.639211 C577.680095,378.819964 587.024822,384.725328 596.82489,390.355305 C613.456185,399.909708 670.58596,434.577599 680.518791,447 L680.518791,447 L688.933589,442.958182 C669.90045,400.722761 644.696193,361.550536 661.577431,334.145661 C662.878068,332.034216 690.948997,317.916488 745.790218,291.792475 C750.860041,291.560094 763.546344,290.097233 764.733576,293.373879 L764.733576,293.373879 L778.908448,315.847203 C782.047242,316.531897 784.453751,315.652038 786.127973,313.207625 C786.447177,295.304506 787.320545,284.627819 788.748077,281.177564 C790.314492,277.391639 791.786457,274.939519 793.290448,272.573018 L793.822805,271.739305 C795.425099,269.236637 797.079981,266.665328 798.937585,262.543714 C807.301375,256.522302 812.219886,252.587896 813.693118,250.740496 C815.902967,247.969396 816.742103,245.782494 815.245225,241.651254 C813.748347,237.520014 811.706148,236.386575 808.240098,235.690678 L808.240098,235.690678 L789.383904,236.176464 C785.210715,234.164184 782.249475,233.268131 779.345991,232.361295 L778.429675,232.073252 C775.831258,231.248667 773.181814,230.320477 769.654613,228.481421 C766.353265,226.760123 758.852286,219.145236 747.151677,205.636759 C744.304985,204.845267 741.898477,205.725126 739.932152,208.276337 L739.932152,208.276337 L743.454098,234.644546 C744.64133,237.921193 733.986983,244.99206 729.954574,248.087605 C671.227182,263.486156 640.689764,270.796609 638.342319,270.018964 C607.874346,259.925743 602.115884,213.643814 589.669955,169 L589.669955,169 Z M404.5,169 C404.5,200.204088 379.204088,225.5 348,225.5 C379.204088,225.5 404.5,250.795912 404.5,282 C404.5,250.795912 429.795912,225.5 461,225.5 C429.795912,225.5 404.5,200.204088 404.5,169 Z M475.5,154 C473.567003,154 472,155.567003 472,157.5 C472,159.432997 473.567003,161 475.5,161 C477.432997,161 479,159.432997 479,157.5 C479,155.567003 477.432997,154 475.5,154 Z M439,111 L435.767181,117.550407 L428.538378,118.600813 L433.769189,123.699593 L432.534362,130.899187 L439,127.5 L445.465638,130.899187 L444.230811,123.699593 L449.461622,118.600813 L442.232819,117.550407 L439,111 Z M487.5,118 C485.567003,118 484,119.567003 484,121.5 C484,123.432997 485.567003,125 487.5,125 C489.432997,125 491,123.432997 491,121.5 C491,119.567003 489.432997,118 487.5,118 Z M515.5,83 L512.70802,88.6571693 L506.464963,89.5643386 L510.982482,93.9678307 L509.91604,100.185661 L515.5,97.25 L521.08396,100.185661 L520.017518,93.9678307 L524.535037,89.5643386 L518.29198,88.6571693 L515.5,83 Z" id="skyline-emblem" fill="#000000" fill-rule="nonzero"></path>
    </g>
</svg>