<?xml version="1.0" encoding="UTF-8"?>
<svg width="120px" height="120px" viewBox="0 0 120 120" version="1.1" xmlns="http://www.w3.org/2000/svg" xmlns:xlink="http://www.w3.org/1999/xlink">
    <!-- Generator: Sketch 52.6 (67491) - http://www.bohemiancoding.com/sketch -->
    <title>bg-grid</title>
    <desc>Created with Sketch.</desc>
    <g id="bg-grid" stroke="none" stroke-width="1" fill="none" fill-rule="evenodd">
        <g id="lines" fill-rule="nonzero">
            <g id="dot" transform="translate(59.000000, 0.000000)" fill="#2662FF" fill-opacity="0.4">
                <rect id="Rectangle" x="0" y="0" width="3" height="2"/>
                <rect id="Rectangle" x="0" y="119" width="3" height="1"/>
            </g>
            <rect id="Rectangle" fill-opacity="0.7" fill="#1C2235" x="60" y="0" width="1" height="120"/>
            <rect id="Rectangle" fill-opacity="0.7" fill="#1C2235" x="0" y="0" width="120" height="1"/>
        </g>
        <g id="dots" fill="#363C4D" fill-opacity="0.8" fill-rule="nonzero">
            <rect id="Rectangle" x="0" y="0" width="1" height="1"/>
            <rect id="Rectangle-Copy" x="30" y="0" width="1" height="1"/>
            <rect id="Rectangle-Copy-2" x="60" y="0" width="1" height="1"/>
            <rect id="Rectangle-Copy-3" x="90" y="0" width="1" height="1"/>
            <rect id="Rectangle-Copy-7" x="0" y="30" width="1" height="1"/>
            <rect id="Rectangle-Copy-6" x="30" y="30" width="1" height="1"/>
            <rect id="Rectangle-Copy-5" x="60" y="30" width="1" height="1"/>
            <rect id="Rectangle-Copy-4" x="90" y="30" width="1" height="1"/>
            <rect id="Rectangle-Copy-11" x="0" y="60" width="1" height="1"/>
            <rect id="Rectangle-Copy-10" x="30" y="60" width="1" height="1"/>
            <rect id="Rectangle-Copy-9" x="60" y="60" width="1" height="1"/>
            <rect id="Rectangle-Copy-8" x="90" y="60" width="1" height="1"/>
            <rect id="Rectangle-Copy-15" x="0" y="90" width="1" height="1"/>
            <rect id="Rectangle-Copy-14" x="30" y="90" width="1" height="1"/>
            <rect id="Rectangle-Copy-13" x="60" y="90" width="1" height="1"/>
            <rect id="Rectangle-Copy-12" x="90" y="90" width="1" height="1"/>
        </g>
    </g>
</svg>